<svg width="278" height="186" viewBox="0 0 278 186" fill="none" xmlns="http://www.w3.org/2000/svg">
<g clip-path="url(#clip0_1793_44455)">
<g opacity="0.2">
<path d="M96.2336 170.971C96.3732 171.543 96.5588 172.102 96.7886 172.644C100.36 171.243 103.971 169.901 107.621 168.616C107.59 168.465 107.559 168.306 107.521 168.149C107.153 166.535 106.368 165.046 105.244 163.829C103.785 162.29 101.904 161.546 100.075 162C98.2454 162.454 96.9171 164.008 96.3107 166.053C95.8574 167.658 95.8308 169.353 96.2336 170.971Z" fill="#3F3D56"/>
<path d="M101.365 167.911C104.5 167.212 106.283 163.249 105.346 159.061C104.409 154.872 101.108 152.043 97.9722 152.743C94.8369 153.442 93.0547 157.404 93.9915 161.593C94.9284 165.781 98.2296 168.61 101.365 167.911Z" fill="#3F3D56"/>
<path d="M99.1648 158.671C102.3 157.972 104.082 154.009 103.145 149.821C102.209 145.632 98.9074 142.803 95.772 143.503C92.6367 144.202 90.8545 148.164 91.7913 152.353C92.7282 156.541 96.0294 159.37 99.1648 158.671Z" fill="#3F3D56"/>
<path d="M96.9602 149.436C100.096 148.737 101.878 144.775 100.941 140.586C100.004 136.398 96.7028 133.569 93.5674 134.268C90.4321 134.967 88.6499 138.93 89.5867 143.118C90.5236 147.307 93.8248 150.136 96.9602 149.436Z" fill="#3F3D56"/>
<path d="M94.7556 140.2C97.8909 139.5 99.6732 135.538 98.7363 131.349C97.7994 127.161 94.4982 124.332 91.3628 125.031C88.2275 125.731 86.4453 129.693 87.3822 133.881C88.319 138.07 91.6202 140.899 94.7556 140.2Z" fill="#3F3D56"/>
<path d="M99.1087 64.1226C99.6432 62.9252 100.095 61.6925 100.46 60.4333L85.0442 61.6443L101.113 57.7626C101.881 53.7277 101.783 49.5762 100.828 45.5816C99.9896 42.0452 98.4874 38.6996 96.4006 35.7223L77.5932 52.5136L93.875 32.6385C87.2282 25.5526 77.1744 22.1815 67.1824 24.6854C52.2521 28.4131 43.1027 43.8165 46.746 59.089C48.1942 65.2579 51.6661 70.7663 56.6096 74.7387C55.7791 76.6033 55.1478 78.5502 54.7263 80.547L76.4165 85.9705L54.2125 84.0489C53.9469 87.1445 54.1793 90.2626 54.901 93.2848C56.3518 99.4532 59.8242 104.961 64.7672 108.934C62.1695 114.759 61.5698 121.276 63.0612 127.475C66.7045 142.748 81.7607 152.104 96.6909 148.379C111.621 144.654 120.771 129.251 117.127 113.978C115.677 107.81 112.204 102.302 107.261 98.3286C109.859 92.5044 110.459 85.9869 108.967 79.7876C107.523 73.6141 104.053 68.1 99.1087 64.1226Z" fill="#8F5BD7"/>
<path opacity="0.1" d="M54.9062 93.2745C56.357 99.4429 59.8294 104.951 64.7724 108.924C62.1747 114.748 61.575 121.266 63.0664 127.465C66.7097 142.738 81.7659 152.094 96.6962 148.369C111.626 144.644 120.776 129.24 117.133 113.968C115.682 107.799 112.209 102.292 107.266 98.3183C109.769 92.7101 54.1663 90.1779 54.9062 93.2745Z" fill="black"/>
</g>
<g opacity="0.2">
<path d="M165.526 168.152C165.432 168.82 165.395 169.494 165.415 170.168C169.894 170.24 174.391 170.391 178.904 170.62C178.935 170.443 178.966 170.263 178.991 170.081C179.282 168.2 179.065 166.275 178.362 164.506C177.432 162.243 175.698 160.624 173.527 160.311C171.355 159.999 169.238 161.066 167.71 162.969C166.532 164.472 165.778 166.261 165.526 168.152Z" fill="#3F3D56"/>
<path d="M180.55 159.333C181.25 154.472 178.802 150.098 175.083 149.565C171.364 149.031 167.781 152.539 167.082 157.4C166.382 162.261 168.83 166.634 172.549 167.168C176.268 167.702 179.85 164.194 180.55 159.333Z" fill="#3F3D56"/>
<path d="M182.098 148.574C182.798 143.713 180.35 139.34 176.631 138.806C172.912 138.272 169.329 141.78 168.629 146.641C167.93 151.502 170.377 155.876 174.097 156.409C177.816 156.943 181.398 153.435 182.098 148.574Z" fill="#3F3D56"/>
<path d="M183.646 137.818C184.345 132.957 181.898 128.584 178.178 128.05C174.459 127.516 170.877 131.024 170.177 135.885C169.477 140.746 171.925 145.12 175.644 145.653C179.364 146.187 182.946 142.679 183.646 137.818Z" fill="#3F3D56"/>
<path d="M185.196 127.06C185.896 122.199 183.448 117.826 179.729 117.292C176.01 116.758 172.427 120.266 171.728 125.127C171.028 129.988 173.476 134.362 177.195 134.895C180.914 135.429 184.496 131.921 185.196 127.06Z" fill="#3F3D56"/>
<path d="M214.255 56.0874C215.344 55.048 216.359 53.9335 217.292 52.7522L200.019 47.3338L219.132 50.2201C221.541 46.4953 223.164 42.3191 223.901 37.9467C224.638 33.5743 224.475 29.0977 223.42 24.7906L195.836 34.3959L222.012 20.4139C220.345 16.2682 217.84 12.5098 214.655 9.37277C211.47 6.23571 207.672 3.78723 203.497 2.17986C199.323 0.572482 194.862 -0.159347 190.392 0.0299616C185.922 0.219271 181.539 1.32566 177.515 3.28021C173.492 5.23475 169.915 7.99558 167.008 11.3907C164.1 14.7858 161.923 18.7425 160.613 23.0142C159.304 27.2859 158.889 31.7811 159.395 36.2199C159.901 40.6586 161.317 44.9457 163.555 48.8141C161.863 50.4288 160.349 52.2204 159.041 54.1581L180.291 69.3665L156.985 57.6472C154.533 62.4753 153.326 67.8376 153.472 73.2489C153.619 78.6602 155.114 83.9497 157.823 88.6387C153.397 92.852 150.248 98.2239 148.735 104.14C147.223 110.056 147.408 116.278 149.27 122.094C151.132 127.91 154.596 133.085 159.265 137.029C163.933 140.972 169.619 143.524 175.672 144.392C181.725 145.261 187.9 144.411 193.492 141.94C199.084 139.47 203.867 135.478 207.294 130.421C210.721 125.364 212.653 119.446 212.871 113.344C213.088 107.242 211.581 101.202 208.523 95.9145C213.812 90.879 217.253 84.2146 218.293 76.9916C219.332 69.7686 217.91 62.4063 214.255 56.0874Z" fill="#8F5BD7"/>
<path opacity="0.1" d="M153.786 67.7349C152.736 74.9579 154.158 82.3235 157.823 88.6387C153.397 92.852 150.248 98.2239 148.735 104.14C147.223 110.056 147.408 116.278 149.27 122.094C151.132 127.91 154.596 133.085 159.265 137.029C163.933 140.972 169.619 143.524 175.672 144.392C181.725 145.261 187.9 144.411 193.492 141.94C199.084 139.47 203.867 135.478 207.294 130.421C210.721 125.364 212.653 119.446 212.871 113.344C213.088 107.242 211.581 101.202 208.523 95.9145C213.636 91.0529 154.308 64.1201 153.786 67.7349Z" fill="black"/>
</g>
<path opacity="0.1" d="M139 186C215.768 186 278 182.439 278 178.047C278 173.654 215.768 170.094 139 170.094C62.2324 170.094 0 173.654 0 178.047C0 182.439 62.2324 186 139 186Z" fill="#8F5BD7"/>
<path d="M229.877 174.843C233.467 174.843 236.377 174.283 236.377 173.593C236.377 172.903 233.467 172.344 229.877 172.344C226.287 172.344 223.376 172.903 223.376 173.593C223.376 174.283 226.287 174.843 229.877 174.843Z" fill="#8F5BD7"/>
<path d="M229.769 174.055C230.187 174.055 230.527 173.612 230.527 173.065C230.527 172.518 230.187 172.074 229.769 172.074C229.35 172.074 229.011 172.518 229.011 173.065C229.011 173.612 229.35 174.055 229.769 174.055Z" fill="#3F3D56"/>
<path d="M229.769 172.844C230.187 172.844 230.527 172.401 230.527 171.854C230.527 171.307 230.187 170.863 229.769 170.863C229.35 170.863 229.011 171.307 229.011 171.854C229.011 172.401 229.35 172.844 229.769 172.844Z" fill="#3F3D56"/>
<path d="M229.769 171.636C230.187 171.636 230.527 171.192 230.527 170.645C230.527 170.098 230.187 169.655 229.769 169.655C229.35 169.655 229.011 170.098 229.011 170.645C229.011 171.192 229.35 171.636 229.769 171.636Z" fill="#3F3D56"/>
<path d="M229.769 170.427C230.187 170.427 230.527 169.984 230.527 169.437C230.527 168.89 230.187 168.447 229.769 168.447C229.35 168.447 229.011 168.89 229.011 169.437C229.011 169.984 229.35 170.427 229.769 170.427Z" fill="#3F3D56"/>
<path d="M229.769 169.216C230.187 169.216 230.527 168.773 230.527 168.226C230.527 167.679 230.187 167.236 229.769 167.236C229.35 167.236 229.011 167.679 229.011 168.226C229.011 168.773 229.35 169.216 229.769 169.216Z" fill="#3F3D56"/>
<path d="M229.769 168.008C230.187 168.008 230.527 167.565 230.527 167.018C230.527 166.471 230.187 166.027 229.769 166.027C229.35 166.027 229.011 166.471 229.011 167.018C229.011 167.565 229.35 168.008 229.769 168.008Z" fill="#3F3D56"/>
<path d="M229.769 166.8C230.187 166.8 230.527 166.356 230.527 165.809C230.527 165.262 230.187 164.819 229.769 164.819C229.35 164.819 229.011 165.262 229.011 165.809C229.011 166.356 229.35 166.8 229.769 166.8Z" fill="#3F3D56"/>
<path d="M232.6 157.536C232.704 157.404 232.799 157.265 232.883 157.12L230.894 156.794L233.045 156.81C233.251 156.361 233.363 155.876 233.375 155.383C233.387 154.889 233.298 154.399 233.114 153.941L230.229 155.437L232.891 153.482C232.642 153.049 232.307 152.673 231.906 152.375C231.505 152.078 231.047 151.867 230.561 151.754C230.074 151.642 229.57 151.631 229.079 151.722C228.588 151.814 228.121 152.005 227.708 152.285C227.294 152.565 226.943 152.927 226.676 153.348C226.41 153.77 226.233 154.242 226.157 154.735C226.081 155.228 226.109 155.731 226.237 156.213C226.365 156.695 226.591 157.145 226.901 157.536C226.741 157.74 226.602 157.961 226.488 158.195L229.057 159.534L226.305 158.611C226.113 159.182 226.066 159.793 226.17 160.387C226.274 160.981 226.526 161.54 226.901 162.012C226.481 162.546 226.219 163.188 226.146 163.863C226.074 164.539 226.193 165.221 226.49 165.832C226.787 166.443 227.251 166.958 227.827 167.319C228.404 167.679 229.071 167.87 229.751 167.87C230.431 167.87 231.098 167.679 231.675 167.319C232.251 166.958 232.715 166.443 233.012 165.832C233.309 165.221 233.428 164.539 233.355 163.863C233.283 163.188 233.021 162.546 232.6 162.012C233.103 161.375 233.376 160.587 233.376 159.775C233.376 158.964 233.103 158.176 232.6 157.538V157.536Z" fill="#8F5BD7"/>
<path opacity="0.1" d="M226.125 159.773C226.123 160.584 226.395 161.372 226.896 162.01C226.476 162.544 226.214 163.185 226.141 163.861C226.068 164.536 226.187 165.218 226.485 165.829C226.782 166.441 227.245 166.956 227.822 167.316C228.399 167.677 229.065 167.868 229.746 167.868C230.426 167.868 231.093 167.677 231.669 167.316C232.246 166.956 232.709 166.441 233.007 165.829C233.304 165.218 233.423 164.536 233.35 163.861C233.277 163.185 233.016 162.544 232.595 162.01C233.086 161.394 226.125 159.367 226.125 159.773Z" fill="black"/>
<path d="M80.5993 184.892C85.3955 184.892 89.2836 184.145 89.2836 183.224C89.2836 182.303 85.3955 181.557 80.5993 181.557C75.8031 181.557 71.915 182.303 71.915 183.224C71.915 184.145 75.8031 184.892 80.5993 184.892Z" fill="#8F5BD7"/>
<path d="M80.453 183.837C81.0121 183.837 81.4653 183.246 81.4653 182.516C81.4653 181.786 81.0121 181.195 80.453 181.195C79.8939 181.195 79.4407 181.786 79.4407 182.516C79.4407 183.246 79.8939 183.837 80.453 183.837Z" fill="#3F3D56"/>
<path d="M80.453 182.221C81.0121 182.221 81.4653 181.629 81.4653 180.9C81.4653 180.17 81.0121 179.578 80.453 179.578C79.8939 179.578 79.4407 180.17 79.4407 180.9C79.4407 181.629 79.8939 182.221 80.453 182.221Z" fill="#3F3D56"/>
<path d="M80.453 180.605C81.0121 180.605 81.4653 180.013 81.4653 179.284C81.4653 178.554 81.0121 177.962 80.453 177.962C79.8939 177.962 79.4407 178.554 79.4407 179.284C79.4407 180.013 79.8939 180.605 80.453 180.605Z" fill="#3F3D56"/>
<path d="M80.453 178.991C81.0121 178.991 81.4653 178.399 81.4653 177.67C81.4653 176.94 81.0121 176.349 80.453 176.349C79.8939 176.349 79.4407 176.94 79.4407 177.67C79.4407 178.399 79.8939 178.991 80.453 178.991Z" fill="#3F3D56"/>
<path d="M80.453 177.375C81.0121 177.375 81.4653 176.783 81.4653 176.054C81.4653 175.324 81.0121 174.732 80.453 174.732C79.8939 174.732 79.4407 175.324 79.4407 176.054C79.4407 176.783 79.8939 177.375 80.453 177.375Z" fill="#3F3D56"/>
<path d="M80.453 175.758C81.0121 175.758 81.4653 175.167 81.4653 174.437C81.4653 173.707 81.0121 173.116 80.453 173.116C79.8939 173.116 79.4407 173.707 79.4407 174.437C79.4407 175.167 79.8939 175.758 80.453 175.758Z" fill="#3F3D56"/>
<path d="M80.453 174.145C81.0121 174.145 81.4653 173.553 81.4653 172.823C81.4653 172.094 81.0121 171.502 80.453 171.502C79.8939 171.502 79.4407 172.094 79.4407 172.823C79.4407 173.553 79.8939 174.145 80.453 174.145Z" fill="#3F3D56"/>
<path d="M84.2403 161.769C84.3773 161.592 84.5026 161.407 84.6154 161.215L81.9613 160.778L84.8338 160.802C85.1102 160.203 85.261 159.554 85.2769 158.895C85.2928 158.235 85.1735 157.58 84.9263 156.969L81.0723 158.965L84.6257 156.368C84.2912 155.796 83.8426 155.299 83.3077 154.907C82.7728 154.515 82.1631 154.238 81.5162 154.091C80.8693 153.944 80.1992 153.932 79.5473 154.054C78.8954 154.177 78.2756 154.432 77.7265 154.803C77.1773 155.175 76.7105 155.655 76.3548 156.214C75.9992 156.773 75.7624 157.399 75.6591 158.054C75.5558 158.708 75.5883 159.376 75.7544 160.018C75.9205 160.659 76.2168 161.259 76.6248 161.782C76.4101 162.056 76.225 162.351 76.0724 162.664L79.523 164.46L75.8437 163.229C75.5849 163.99 75.5198 164.804 75.6544 165.596C75.7889 166.389 76.1189 167.136 76.6145 167.769C76.053 168.483 75.7037 169.34 75.6068 170.242C75.5098 171.144 75.669 172.055 76.0662 172.872C76.4633 173.688 77.0825 174.376 77.8528 174.857C78.6231 175.339 79.5135 175.594 80.4223 175.594C81.331 175.594 82.2214 175.339 82.9917 174.857C83.7621 174.376 84.3812 173.688 84.7784 172.872C85.1755 172.055 85.3347 171.144 85.2378 170.242C85.1408 169.34 84.7916 168.483 84.23 167.769C84.9007 166.917 85.2653 165.864 85.2653 164.779C85.2653 163.695 84.9007 162.642 84.23 161.789L84.2403 161.769Z" fill="#8F5BD7"/>
<path opacity="0.1" d="M75.5893 164.758C75.586 165.842 75.948 166.895 76.617 167.749C76.0554 168.462 75.7062 169.319 75.6092 170.221C75.5122 171.124 75.6714 172.035 76.0686 172.851C76.4658 173.667 77.0849 174.355 77.8552 174.837C78.6255 175.318 79.516 175.573 80.4247 175.573C81.3335 175.573 82.2239 175.318 82.9942 174.837C83.7645 174.355 84.3836 173.667 84.7808 172.851C85.178 172.035 85.3372 171.124 85.2402 170.221C85.1432 169.319 84.794 168.462 84.2324 167.749C84.8876 166.925 75.5893 164.216 75.5893 164.758Z" fill="black"/>
<path d="M126.323 109.786C125.668 106.364 124.935 102.934 124.815 99.4522C124.743 97.3998 124.887 95.3115 124.622 93.2642C124.491 92.2585 124.262 91.2708 124.036 90.2831L123.127 86.3296C123.23 85.5717 123.2 84.8017 123.039 84.054C122.948 83.6597 122.827 83.2729 122.677 82.8969C123.526 81.7038 124.226 80.4114 124.761 79.0487C125.002 78.4329 125.21 77.7787 125.115 77.1271C124.93 75.8777 123.718 75.0541 122.59 74.4384C121.906 74.0664 121.187 73.7073 120.406 73.6482C119.86 73.6263 119.316 73.7306 118.817 73.9531C118.317 74.1756 117.876 74.5103 117.528 74.931C117.338 73.9196 117.402 72.877 117.713 71.896C117.043 71.5958 116.367 71.3136 115.686 71.0391C115.588 70.1525 115.553 69.26 115.583 68.3684C115.599 67.2986 115.617 66.2185 115.678 65.1461C117.505 64.4803 119.085 63.2722 120.205 61.6841C121.324 60.096 121.931 58.2039 121.942 56.2617C121.942 56.1514 121.942 56.0437 121.942 55.9359C122.44 55.0421 122.755 54.0583 122.869 53.0418C122.983 52.0252 122.893 50.9963 122.605 50.0147C121.852 47.4492 119.884 45.3352 117.513 44.0293C115.141 42.7235 112.392 42.1719 109.671 42.0744C108.758 42.0211 107.842 42.0788 106.943 42.2463C105.98 42.4828 105.048 42.8271 104.163 43.2725C102.803 43.8985 101.434 44.5835 100.417 45.6636C98.6514 47.5441 98.2557 50.3072 98.4484 52.847C98.7054 56.1822 99.8204 59.4096 101.11 62.5139C101.539 63.5401 101.997 64.5817 102.703 65.4566C103.25 66.1313 104.201 66.1723 104.957 65.7003C104.897 66.5198 104.878 67.3418 104.9 68.1632C103.505 68.1144 102.146 68.3428 101.025 69.1278C100.512 69.4947 100.023 70.0719 100.136 70.6928C100.48 70.7019 100.809 70.8317 101.065 71.0594C101.322 71.287 101.49 71.5978 101.539 71.937C101.596 72.4835 101.321 73.0043 101.054 73.4764C100.938 73.6867 100.822 73.8997 100.704 74.11C99.5995 75.2902 98.4664 76.7679 98.3662 78.2328C98.1859 78.2499 98.0067 78.2764 97.8292 78.3124C96.8272 78.4971 95.8303 78.8383 94.8462 79.0948L87.7241 80.9677L85.9641 81.4551L83.1379 82.1991C81.3393 82.6712 79.5074 83.156 77.9119 84.1053C76.3163 85.0545 74.9623 86.5451 74.6411 88.341C74.4818 89.2338 74.5795 90.1625 74.3842 91.0476C74.3842 91.0886 74.3688 91.1271 74.3585 91.1656C74.1953 91.7259 73.9758 92.2682 73.7033 92.7844C72.1078 96.1427 70.9722 99.8037 71.1854 103.501C71.3164 105.771 71.9562 107.985 72.578 110.171C73.2306 112.406 73.8746 114.642 74.5101 116.877C74.9291 118.478 75.4606 120.046 76.1005 121.572C77.1968 124.016 78.8229 126.187 80.8615 127.927C81.4335 128.439 82.0732 128.871 82.7627 129.21C83.814 129.664 84.9618 129.85 86.1029 129.751C86.4112 129.73 86.7144 129.697 87.015 129.648C89.222 129.299 91.28 128.237 93.1685 127.042C93.9581 126.542 94.7289 126.016 95.4809 125.464C95.5764 126.326 95.7483 127.178 95.9947 128.009C96.1617 128.581 96.3673 129.169 96.3005 129.761C96.208 130.587 95.6068 131.265 95.2959 132.039C94.6356 133.676 95.3139 135.5 95.4243 137.255C95.5297 138.9 95.1289 140.531 94.8077 142.15C94.2714 144.85 93.9543 147.589 93.8596 150.339C93.8568 151.381 93.7881 152.421 93.6541 153.454C93.4151 154.911 92.855 156.317 92.7574 157.79C92.6084 160.083 93.6001 162.328 93.5102 164.624C93.4049 167.32 91.8196 169.94 92.372 172.577C92.4414 172.908 92.6289 173.29 92.9321 173.375L92.7831 173.511C92.3283 173.932 91.8864 174.709 92.4028 175.05C92.5216 175.121 92.6537 175.166 92.7908 175.184C93.5898 175.35 94.394 175.502 95.1982 175.643C95.1805 176.385 95.2741 177.125 95.4757 177.839C95.6222 177.944 95.7712 178.039 95.9202 178.129C95.8072 178.432 95.8149 178.724 96.0821 178.899C96.2009 178.969 96.3329 179.015 96.4701 179.032C103.088 180.396 109.848 180.955 116.601 180.7C117.808 180.653 119.07 180.566 120.1 179.95C121.13 179.335 121.827 178.024 121.336 176.944C120.902 175.989 119.766 175.576 118.746 175.258L117.549 174.889C117.702 174.617 117.792 174.314 117.81 174.003C117.829 173.692 117.776 173.381 117.657 173.093C117.222 172.138 116.087 171.725 115.067 171.407L112.31 170.553C111.947 170.467 111.606 170.307 111.308 170.083C111.11 169.887 110.928 169.676 110.763 169.452C110.365 168.998 109.843 168.671 109.26 168.511C109.229 167.927 109.242 167.343 109.299 166.761L110.069 157.471C110.242 155.368 110.411 153.223 109.92 151.168C109.723 150.334 109.407 149.48 109.599 148.643C109.9 147.279 111.339 146.519 112.32 145.506C113.8 143.967 114.26 141.778 114.599 139.695C116.004 131.098 116.445 122.372 115.915 113.678C118.999 112.81 122.173 112.3 125.375 112.159C125.92 112.136 126.187 111.88 126.356 111.372C126.526 110.864 126.423 110.312 126.323 109.786ZM110.946 110.24C110.964 110.15 110.984 110.061 111 109.971L111.213 110.243L110.946 110.24Z" fill="url(#paint0_linear_1793_44455)"/>
<path d="M105.935 63.1502C105.869 64.043 105.553 64.8999 105.437 65.7902C105.306 66.7702 105.422 67.7682 105.357 68.7559C105.293 69.7436 105.008 70.7827 104.255 71.4266C108.631 71.805 112.94 72.736 117.081 74.1974C115.83 72.6581 115.796 70.5082 115.827 68.5327C115.868 65.6106 115.92 62.632 116.876 59.8741C114.025 59.2378 111.073 59.1994 108.207 59.7612C107.585 59.8843 105.702 59.8074 105.422 60.3872C105.219 60.8131 105.982 62.5037 105.935 63.1502Z" fill="#A1616A"/>
<path opacity="0.1" d="M105.935 63.1502C105.869 64.043 105.553 64.8999 105.437 65.7902C105.306 66.7702 105.422 67.7682 105.357 68.7559C105.293 69.7436 105.008 70.7827 104.255 71.4266C108.631 71.805 112.94 72.736 117.081 74.1974C115.83 72.6581 115.796 70.5082 115.827 68.5327C115.868 65.6106 115.92 62.632 116.876 59.8741C114.025 59.2378 111.073 59.1994 108.207 59.7612C107.585 59.8843 105.702 59.8074 105.422 60.3872C105.219 60.8131 105.982 62.5037 105.935 63.1502Z" fill="black"/>
<path d="M111.115 169.465C111.27 169.693 111.441 169.908 111.629 170.109C111.918 170.333 112.252 170.493 112.608 170.579L115.301 171.433C116.3 171.751 117.41 172.162 117.834 173.116C118.312 174.194 117.631 175.504 116.624 176.118C115.617 176.731 114.383 176.821 113.204 176.867C106.601 177.121 99.9918 176.562 93.5257 175.202C93.3923 175.182 93.264 175.137 93.1481 175.068C92.6342 174.722 93.0735 173.947 93.518 173.529C95.2523 171.887 97.1382 170.166 99.4994 169.786C100.74 169.583 101.986 169.665 103.22 169.37C104.106 169.157 104.944 168.791 105.828 168.572C107.475 168.17 109.939 168.026 111.115 169.465Z" fill="#46455B"/>
<path opacity="0.1" d="M111.115 169.465C111.27 169.693 111.441 169.908 111.629 170.109C111.918 170.333 112.252 170.493 112.608 170.579L115.301 171.433C116.3 171.751 117.41 172.162 117.834 173.116C118.312 174.194 117.631 175.504 116.624 176.118C115.617 176.731 114.383 176.821 113.204 176.867C106.601 177.121 99.9918 176.562 93.5257 175.202C93.3923 175.182 93.264 175.137 93.1481 175.068C92.6342 174.722 93.0735 173.947 93.518 173.529C95.2523 171.887 97.1382 170.166 99.4994 169.786C100.74 169.583 101.986 169.665 103.22 169.37C104.106 169.157 104.944 168.791 105.828 168.572C107.475 168.17 109.939 168.026 111.115 169.465Z" fill="black"/>
<path d="M97.5954 111.438C96.2668 114.939 96.1851 118.79 97.3642 122.344C96.4675 122.247 96.0795 123.458 96.1027 124.361C96.1346 125.618 96.3254 126.866 96.6705 128.076C96.8349 128.65 97.0353 129.235 96.9711 129.825C96.8786 130.652 96.2928 131.329 95.987 132.101C95.3447 133.735 96.005 135.557 96.1155 137.309C96.2183 138.954 95.8252 140.583 95.5092 142.199C94.9856 144.896 94.6764 147.63 94.5842 150.375C94.5824 151.416 94.5146 152.455 94.3812 153.487C94.15 154.944 93.6104 156.348 93.5077 157.818C93.3612 160.106 94.3298 162.351 94.2425 164.645C94.1397 167.336 92.5878 169.953 93.13 172.598C93.207 172.97 93.4152 173.408 93.798 173.414C97.6725 173.462 101.293 172.387 105.126 172.949C105.517 164.093 105.897 155.196 107.644 146.501C109.186 138.761 111.799 131.108 111.555 123.217C111.413 118.704 110.339 114.278 109.687 109.809C105.59 108.901 101.304 109.479 97.5954 111.438Z" fill="#BBBDC8"/>
<path opacity="0.1" d="M97.5954 111.438C96.2668 114.939 96.1851 118.79 97.3642 122.344C96.4675 122.247 96.0795 123.458 96.1027 124.361C96.1346 125.618 96.3254 126.866 96.6705 128.076C96.8349 128.65 97.0353 129.235 96.9711 129.825C96.8786 130.652 96.2928 131.329 95.987 132.101C95.3447 133.735 96.005 135.557 96.1155 137.309C96.2183 138.954 95.8252 140.583 95.5092 142.199C94.9856 144.896 94.6764 147.63 94.5842 150.375C94.5824 151.416 94.5146 152.455 94.3812 153.487C94.15 154.944 93.6104 156.348 93.5077 157.818C93.3612 160.106 94.3298 162.351 94.2425 164.645C94.1397 167.336 92.5878 169.953 93.13 172.598C93.207 172.97 93.4152 173.408 93.798 173.414C97.6725 173.462 101.293 172.387 105.126 172.949C105.517 164.093 105.897 155.196 107.644 146.501C109.186 138.761 111.799 131.108 111.555 123.217C111.413 118.704 110.339 114.278 109.687 109.809C105.59 108.901 101.304 109.479 97.5954 111.438Z" fill="black"/>
<path d="M114.712 173.314C114.867 173.541 115.038 173.756 115.226 173.957C115.515 174.181 115.849 174.341 116.205 174.427L118.898 175.281C119.897 175.599 121.007 176.01 121.431 176.964C121.909 178.042 121.228 179.353 120.221 179.966C119.214 180.579 117.98 180.669 116.801 180.715C110.198 180.969 103.589 180.41 97.1227 179.05C96.9892 179.031 96.8609 178.985 96.745 178.917C96.2311 178.57 96.6705 177.796 97.115 177.377C98.8492 175.735 100.735 174.014 103.096 173.634C104.337 173.432 105.583 173.514 106.817 173.219C107.703 173.006 108.541 172.639 109.425 172.421C111.071 172.018 113.535 171.874 114.712 173.314Z" fill="#46455B"/>
<path d="M98.9315 111.692C97.9397 112.975 97.6468 114.668 97.7804 116.274C97.914 117.88 98.4561 119.422 98.988 120.944C98.2814 121.593 98.4279 122.711 98.5204 123.666C98.857 127.211 97.6237 130.749 97.8035 134.305C97.8781 135.8 98.2044 137.276 98.2814 138.771C98.3662 140.406 98.1581 142.04 97.9628 143.664C96.7155 154.06 96.0294 164.516 95.9074 174.986C95.9074 175.951 95.892 176.931 96.1643 177.854C98.0322 179.227 100.378 179.412 102.639 178.899C104.9 178.386 106.963 177.241 108.99 176.112C110.101 175.539 111.154 174.86 112.135 174.086C112.435 173.874 112.657 173.569 112.767 173.219C112.983 172.192 111.555 171.728 110.735 171.064C109.543 170.096 109.561 168.306 109.684 166.777L110.429 157.5C110.599 155.398 110.763 153.256 110.285 151.204C110.09 150.373 109.789 149.518 109.969 148.682C110.262 147.322 111.67 146.563 112.628 145.549C114.078 144.01 114.525 141.827 114.859 139.749C116.433 129.89 116.768 119.874 115.856 109.932C113.967 110.587 111.729 110.23 109.738 110.384C107.747 110.538 105.768 111.202 103.752 111.256C102.071 111.295 99.9643 110.369 98.9315 111.692Z" fill="#BBBDC8"/>
<path d="M112.536 65.9338C117.786 65.9338 122.042 61.6839 122.042 56.4414C122.042 51.1989 117.786 46.949 112.536 46.949C107.286 46.949 103.03 51.1989 103.03 56.4414C103.03 61.6839 107.286 65.9338 112.536 65.9338Z" fill="#A1616A"/>
<path d="M117.908 72.0551C114.862 70.658 111.686 69.5633 108.425 68.7866C106.128 68.2402 103.505 67.9118 101.586 69.2844C101.072 69.6512 100.607 70.2285 100.717 70.8493C101.056 70.8605 101.379 70.9915 101.63 71.219C101.881 71.4464 102.043 71.7555 102.087 72.091C102.143 72.6349 101.876 73.1557 101.614 73.6303L99.3965 77.7352C98.9717 78.4746 98.6065 79.2467 98.3046 80.0441C97.8575 81.3474 97.7599 82.7431 97.6648 84.1182L97.4079 87.8433C97.2486 90.1908 97.0867 92.5485 97.3 94.8908C97.4593 96.6584 97.8292 98.4338 97.5774 100.191C97.3745 101.605 96.7758 102.931 96.4392 104.322C95.8072 106.938 96.0949 109.807 94.8694 112.208C95.3671 111.979 95.9289 111.928 96.4598 112.064C100.18 112.749 103.107 115.682 106.719 116.803C107.631 115.474 108.867 114.494 109.887 113.257C110.646 112.33 111.148 111.221 111.344 110.04C112.115 111.066 112.77 111.867 113.23 113.057C113.312 113.334 113.452 113.59 113.641 113.809C114.126 114.281 114.925 114.099 115.576 113.901C118.762 112.941 122.057 112.384 125.383 112.241C125.917 112.218 126.177 111.962 126.344 111.454C126.511 110.946 126.418 110.397 126.318 109.873C125.678 106.454 124.964 103.029 124.846 99.5523C124.774 97.4999 124.915 95.4193 124.655 93.372C124.527 92.3689 124.303 91.3812 124.083 90.396L122.248 82.2556C122.145 81.8015 121.657 81.5039 121.449 81.0857C120.606 79.3822 118.995 78.1508 118.163 76.4421C117.534 75.0624 117.443 73.4981 117.908 72.0551Z" fill="#46455B"/>
<path d="M104.571 60.2409C104.56 60.108 104.592 59.975 104.661 59.8612C104.763 59.7546 104.89 59.676 105.031 59.6329C105.414 59.4512 105.727 59.1498 105.924 58.7744C106.12 58.3989 106.188 57.9699 106.118 57.5522L107.017 57.3649L107.045 54.2376C108.381 53.4987 110.203 54.058 111.459 53.1883C112.166 52.6957 112.528 51.8593 112.96 51.1153C113.392 50.3713 114.034 49.6222 114.892 49.5606C114.597 50.3102 114.47 51.1153 114.522 51.9191C114.573 52.7229 114.8 53.5056 115.188 54.2119C116.087 53.7572 116.839 53.056 117.353 52.1903L117.801 54.7558C117.81 54.914 117.877 55.0631 117.991 55.174C118.224 55.3459 118.54 55.1304 118.746 54.9174L119.91 53.7758C120.4 55.003 120.736 56.2862 120.909 57.5958C122.821 55.7435 123.414 52.7675 122.68 50.2123C121.945 47.657 120.02 45.5405 117.703 44.2346C115.385 42.9288 112.698 42.3797 110.039 42.2823C109.146 42.2301 108.25 42.2878 107.372 42.4541C106.429 42.6909 105.517 43.0352 104.653 43.4804C103.325 44.1038 101.984 44.7888 100.992 45.8663C99.2655 47.7442 98.8775 50.5047 99.0677 53.0497C99.3246 56.3849 100.409 59.6046 101.67 62.7038C102.089 63.73 102.536 64.769 103.227 65.6439C104.268 66.96 106.824 65.8671 106.498 63.2656C106.272 61.4082 104.571 62.124 104.571 60.2409Z" fill="#3F3D56"/>
<path d="M108.168 111.061C104.962 117.603 100.038 123.154 93.9214 127.121C92.0741 128.314 90.0675 129.376 87.9067 129.725C87.6112 129.774 87.3157 129.807 87.0151 129.828C85.9008 129.92 84.7813 129.73 83.7598 129.276C83.0835 128.936 82.4576 128.505 81.8996 127.994C79.9002 126.246 78.3114 124.08 77.2466 121.649C76.6207 120.124 76.1013 118.557 75.6921 116.959C75.0618 114.726 74.4332 112.491 73.8063 110.256C73.1922 108.07 72.573 105.858 72.4445 103.585C72.2364 99.8936 73.3464 96.2377 74.9059 92.8846C75.1719 92.3681 75.3862 91.8267 75.5457 91.2683C75.5457 91.2298 75.5637 91.1913 75.5714 91.1503C75.7564 90.2652 75.6613 89.339 75.8283 88.4462C76.1418 86.6504 77.4675 85.1624 79.0245 84.2157C80.5816 83.269 82.3647 82.7841 84.1349 82.3121L86.8918 81.5706L88.603 81.1114L95.5632 79.2411C96.5267 78.9846 97.5005 78.6434 98.4794 78.4715C99.5714 78.2662 99.5637 78.374 99.6484 79.4412C99.8052 81.3756 99.7538 83.2767 100.162 85.1931C100.55 87.0224 101.234 88.7849 101.748 90.5807C103.045 95.114 103.261 99.8859 104.283 104.491C104.517 105.54 104.841 106.659 105.686 107.313C106.655 108.083 108.286 108.273 108.543 109.478C108.638 110.015 108.4 110.564 108.168 111.061Z" fill="#8F5BD7"/>
<path opacity="0.1" d="M87.9067 129.715C87.6112 129.764 87.3157 129.797 87.0151 129.818C85.9017 129.913 84.7822 129.727 83.7598 129.276C83.0835 128.936 82.4576 128.505 81.8996 127.994C79.9002 126.246 78.3114 124.08 77.2466 121.649C76.6207 120.124 76.1013 118.557 75.6921 116.959C75.0618 114.726 74.4332 112.491 73.8063 110.256C73.1922 108.07 72.573 105.858 72.4445 103.585C72.2364 99.8936 73.3464 96.2377 74.9059 92.8846C75.1719 92.3681 75.3862 91.8267 75.5457 91.2683C75.5457 91.2298 75.5637 91.1913 75.5714 91.1503C79.7645 91.8866 84.7952 99.8961 87.3902 110.392C89.3018 118.24 89.384 125.467 87.9067 129.715Z" fill="black"/>
<path opacity="0.1" d="M95.486 102.1L94.7846 102.221C94.0626 100.327 93.3432 98.4312 92.4979 96.5892C92.0586 95.6271 91.5832 94.6779 91.2133 93.685C89.8258 89.8727 90.0622 85.3497 87.4903 82.2095C87.3067 81.9762 87.0973 81.7645 86.866 81.5784L88.5771 81.1191C90.0756 83.4848 91.1324 86.102 91.6963 88.8439C91.9738 90.1831 92.1305 91.5531 92.5827 92.841C92.9673 93.8179 93.4074 94.7721 93.9008 95.699C94.8771 97.6975 95.6119 99.8808 95.486 102.1Z" fill="black"/>
<path d="M102.315 73.1943C104.163 71.6139 106.683 70.7468 109.075 71.1418C110.483 71.3702 111.791 72.0039 113.052 72.6812C115.511 73.9844 117.934 75.4853 119.707 77.6275C120.77 78.9786 121.653 80.4619 122.333 82.0402C122.666 82.7297 122.925 83.4531 123.104 84.1978C123.731 87.0968 122.192 89.9779 120.709 92.5485L117.857 97.4897C116.547 99.7602 115.226 102.046 113.52 104.039C112.734 104.958 111.871 105.807 111.01 106.656L107.23 110.381C107.162 110.461 107.073 110.521 106.973 110.553C106.891 110.558 106.809 110.544 106.732 110.514C106.655 110.483 106.586 110.436 106.529 110.376L105.28 109.383C106.43 108.59 107.499 107.685 108.471 106.682C110.105 104.994 111.449 103.052 112.785 101.117L116.942 95.0986C118.158 93.3361 119.427 91.3966 119.291 89.2621C119.227 88.2359 118.841 87.2713 118.438 86.3297C117.724 84.6553 116.948 83.0074 116.11 81.386C115.17 79.567 114.142 77.7711 112.788 76.2344C111.434 74.6977 109.723 73.4123 107.752 72.8556C107.164 72.6639 106.541 72.6043 105.928 72.6812C104.576 72.9044 103.615 74.064 102.76 75.1415L100.155 78.4767C99.561 79.2335 99.0163 80.1109 98.9803 78.6742C98.9187 76.6244 100.995 74.5129 102.315 73.1943Z" fill="#8F5BD7"/>
<path d="M103.122 95.6938C103.636 97.6693 104.394 99.9115 106.298 100.661C107.647 101.192 109.227 100.761 110.393 99.891C111.56 99.0213 112.387 97.795 113.147 96.5558C113.791 95.4423 114.501 94.368 115.272 93.3387C116.796 91.4299 118.869 89.9163 119.897 87.6945C120.2 87.0326 120.411 86.3245 120.755 85.6883C121.123 85.1017 121.539 84.5465 121.999 84.0284C123.182 82.5649 124.128 80.9253 124.802 79.1693C125.038 78.5562 125.241 77.8994 125.149 77.2503C124.966 76.0009 123.782 75.1799 122.68 74.5668C122.009 74.1948 121.308 73.833 120.545 73.7766C119.429 73.6894 118.332 74.2897 117.646 75.1697C116.986 76.0799 116.617 77.1683 116.588 78.2919C116.511 79.6593 116.778 81.0806 116.331 82.3736C116.094 82.9769 115.768 83.5408 115.362 84.0464C113.919 85.9744 112.133 87.6206 110.093 88.9029C110.037 87.9325 109.826 86.9772 109.468 86.0731C109.273 85.5754 105.445 86.0731 104.946 86.1552C103.96 86.2989 102.048 86.4118 101.426 87.3507C100.804 88.2897 101.575 89.8675 101.827 90.8142L103.122 95.6938Z" fill="#A1616A"/>
<path d="M103.03 74.1358C102.461 74.6049 101.931 75.1198 101.447 75.6751C100.306 77.0476 99.7485 78.8332 99.6046 80.6111C99.4608 82.389 99.7048 84.1747 100.011 85.932C100.288 87.509 100.616 89.0748 100.995 90.6295C101.1 89.4571 102.051 88.4873 103.153 88.064C104.255 87.6407 105.465 87.6868 106.639 87.8587C108.151 88.0822 109.625 88.5077 111.023 89.1235L111.565 81.5373C111.679 80.5139 111.673 79.4807 111.547 78.4587C111.376 77.5103 111.005 76.6091 110.458 75.8151C109.912 75.0211 109.202 74.3524 108.376 73.8536C106.316 72.6016 104.879 72.5221 103.03 74.1358Z" fill="#46455B"/>
<path d="M200.093 111.051C199.849 108.992 199.249 106.991 198.32 105.137C197.752 104.009 197.061 102.929 196.704 101.72C196.414 100.738 196.357 99.7037 196.126 98.7057C195.895 97.7077 195.486 96.7534 195.157 95.7785C192.832 88.8516 194.579 81.273 193.829 74.0126C193.549 71.3342 192.727 68.3967 190.402 67.0011C189.019 66.1724 187.36 66.0441 185.733 65.9749L184.991 65.9415L183.798 65.8825C182.072 65.7978 180.34 65.7337 178.66 66.0954C176.604 66.5444 174.169 67.9888 173.521 70.0848C173.167 69.9027 172.81 69.741 172.481 69.5897C171.157 69.0034 169.77 68.5729 168.347 68.3069C169.567 67.9999 170.746 67.545 171.856 66.9523C174.426 65.4592 175.022 61.0978 175.546 58.1808C176.07 55.2638 175.592 52.2493 174.721 49.4144C174.433 48.4085 174.042 47.4352 173.552 46.5103C172.876 45.292 171.955 44.2261 170.848 43.3791C169.74 42.5321 168.47 41.9222 167.116 41.5875C165.762 41.2529 164.353 41.2006 162.978 41.4341C161.602 41.6675 160.29 42.1816 159.123 42.9442C156.726 44.5117 154.498 46.7925 152.669 48.9963C152.412 49.299 151.338 50.3714 151.695 50.8229C151.895 51.0795 152.556 50.8742 153.249 50.5664C152.716 51.7702 152.441 53.0725 152.443 54.389C152.444 56.0426 152.877 57.6672 153.698 59.1031C154.519 60.539 155.701 61.7366 157.126 62.5781L157.383 64.9384V64.9564C157.412 65.744 157.424 66.5316 157.435 67.3166C157.435 67.8682 157.435 68.4326 157.419 68.997C156.353 70.2015 155.048 71.1713 153.586 71.8448C154.793 72.0449 155.945 71.7627 157.065 71.2803C156.883 71.9105 156.577 72.4983 156.165 73.0095C156.474 72.9018 156.782 72.8043 157.09 72.7016C156.929 72.9602 156.786 73.2293 156.661 73.5072C156.471 73.9465 156.332 74.4062 156.248 74.8772C155.593 75.8317 155.027 76.8432 154.555 77.8994C154.339 78.3791 154.146 78.8666 153.971 79.3617V79.3951C153.8 79.8877 153.648 80.3871 153.517 80.8933C153.455 81.1362 153.398 81.3799 153.347 81.6245C153.347 81.6425 153.347 81.6604 153.347 81.6784C153.244 82.1735 153.159 82.6712 153.09 83.1741C153.09 83.2074 153.09 83.2408 153.09 83.2767C153.062 83.5102 153.036 83.7462 153.018 83.9822C153.018 83.9822 153.018 84.0053 153.018 84.0181C152.998 84.2747 152.982 84.5184 152.974 84.7698C152.974 84.8032 152.974 84.834 152.974 84.8673C152.974 85.0803 152.974 85.2958 152.974 85.5087V85.6549C152.974 86.1373 153.005 86.6221 153.051 87.107C153.051 87.166 153.051 87.2276 153.069 87.2866C153.09 87.4842 153.113 87.6817 153.141 87.8818C153.141 87.928 153.141 87.9742 153.159 88.0178C153.193 88.2564 153.231 88.4924 153.275 88.7284C153.275 88.7797 153.298 88.8336 153.308 88.8849C153.344 89.0748 153.383 89.2621 153.427 89.4519L153.473 89.6469C153.529 89.8829 153.588 90.1164 153.655 90.3524C153.694 90.4858 153.732 90.609 153.773 90.7501C153.896 91.2364 153.982 91.7312 154.03 92.2304L152.625 92.2765C149.617 92.3621 146.612 92.498 143.609 92.6845C143.234 91.2401 141.955 90.4063 140.344 90.2087C140.088 90.178 139.83 90.1626 139.573 90.1626C139.851 89.9288 140.098 89.6607 140.308 89.3647C140.587 88.9807 140.786 88.5444 140.893 88.0819C140.479 88.3172 140.118 88.634 139.83 89.0132C139.735 89.1415 139.65 89.2698 139.573 89.3878V88.6181C139.573 88.6019 139.57 88.5857 139.564 88.5706C139.558 88.5555 139.549 88.5418 139.537 88.5303C139.526 88.5188 139.512 88.5097 139.497 88.5036C139.482 88.4976 139.466 88.4946 139.45 88.495H139.193C139.176 88.4946 139.16 88.4976 139.145 88.5036C139.13 88.5097 139.116 88.5188 139.105 88.5303C139.093 88.5418 139.084 88.5555 139.078 88.5706C139.072 88.5857 139.069 88.6019 139.069 88.6181V90.1856H139.018H138.93C138.761 90.201 138.596 90.2216 138.435 90.2524C136.685 90.5782 135.403 91.6993 135.403 93.5875C135.403 94.1821 135.533 94.7695 135.783 95.309C136.034 95.8485 136.398 96.3273 136.852 96.7123C136.927 97.3004 137.061 97.8796 137.25 98.4415C137.427 98.9982 137.659 99.6037 138.178 99.8807C138.495 100.024 138.842 100.088 139.19 100.065C142.047 100.065 144.75 98.7493 147.594 98.5261C149.352 98.385 151.117 98.657 152.879 98.6031C153.136 98.6031 153.393 98.5775 153.65 98.5569C151.24 110.474 148.324 122.542 149.848 134.579C149.948 135.38 150.104 136.247 150.703 136.791C151.497 137.514 152.72 137.396 153.786 137.304C156.712 137.037 159.662 137.273 162.509 137.999C162.909 138.11 163.33 138.125 163.737 138.043C163.824 138.023 163.91 137.998 163.994 137.968L164.066 137.94C164.12 137.92 164.171 137.899 164.22 137.876L164.295 137.838L164.421 137.761C164.441 137.745 164.464 137.732 164.482 137.717C164.527 137.686 164.569 137.652 164.608 137.614L164.644 137.584C164.692 137.537 164.738 137.487 164.78 137.435L164.811 137.389C164.841 137.35 164.868 137.31 164.893 137.268C164.906 137.247 164.919 137.227 164.929 137.206C164.94 137.186 164.971 137.129 164.989 137.091C165.006 137.053 165.009 137.045 165.017 137.022C165.024 136.999 165.05 136.937 165.066 136.893C165.081 136.85 165.066 136.852 165.086 136.829C165.107 136.806 165.122 136.701 165.135 136.637V136.596C165.135 136.542 165.156 136.486 165.163 136.432C165.171 136.378 165.163 136.375 165.163 136.347C165.163 136.319 165.163 136.262 165.163 136.221V136.129C165.163 136.088 165.163 136.047 165.163 136.006V135.777C165.163 135.752 165.163 135.724 165.163 135.695C165.163 135.467 165.138 135.236 165.114 135.015C165.298 135.069 165.485 135.109 165.675 135.136C165.851 135.164 166.03 135.177 166.209 135.175H166.235C166.319 135.175 166.404 135.175 166.492 135.154C166.566 135.143 166.64 135.127 166.713 135.108H166.746C166.813 135.088 166.879 135.062 166.941 135.031L166.972 135.013C167.025 134.983 167.076 134.949 167.124 134.91L167.147 134.892C167.195 134.848 167.238 134.798 167.275 134.744L167.298 134.705C167.336 134.643 167.367 134.577 167.388 134.508C167.535 134.012 167.201 133.453 167.735 132.999C168.249 134.643 168.763 136.291 168.848 137.991C168.876 138.612 168.848 139.274 169.212 139.787C169.45 140.067 169.708 140.33 169.983 140.572C170.769 141.422 170.787 142.702 170.733 143.851C170.71 144.315 170.685 144.78 170.651 145.244C170.227 151.441 168.965 157.552 166.9 163.411C166.699 164.034 166.435 164.636 166.114 165.207C165.592 166.015 164.94 166.731 164.184 167.326C163.113 168.234 161.965 169.049 160.754 169.76C160.136 170.087 159.551 170.475 159.01 170.917C158.989 170.858 158.966 170.802 158.951 170.74C158.922 170.622 158.884 170.484 158.768 170.44C158.68 170.42 158.588 170.435 158.511 170.481C157.306 171.01 156.101 171.538 154.942 172.156C154.358 172.423 153.842 172.82 153.437 173.319C153.067 173.832 152.956 174.601 153.339 175.115C153.676 175.563 154.28 175.712 154.837 175.812C155.551 175.938 156.268 176.028 156.985 176.095C156.617 176.31 156.295 176.596 156.037 176.936C155.667 177.449 155.557 178.219 155.939 178.732C156.276 179.181 156.88 179.33 157.437 179.43C161.993 180.233 166.664 179.686 171.288 179.55C172.792 179.502 174.328 179.491 175.751 179.004C176.032 178.921 176.294 178.784 176.522 178.601C177.17 178.032 177.105 177.031 176.992 176.182L176.522 172.713C176.453 172.713 176.386 172.736 176.319 172.752C176.713 169.493 177.419 166.28 178.429 163.157C179.996 158.295 182.329 153.505 182.298 148.418C182.298 148.295 182.298 148.161 182.298 148.048C182.254 146.455 181.969 144.88 181.784 143.294C181.494 140.642 181.527 137.966 181.545 135.3C181.523 134.255 181.596 133.21 181.764 132.178C181.764 132.142 181.779 132.109 181.787 132.073L186.054 131.96C186.527 131.984 186.999 131.896 187.431 131.703C187.636 131.614 187.8 131.452 187.892 131.249C187.984 131.045 187.998 130.815 187.93 130.603C189.749 131.426 192.182 130.305 192.719 128.396C192.756 128.262 192.786 128.126 192.809 127.989C192.808 127.978 192.808 127.968 192.809 127.958C192.827 127.829 192.84 127.701 192.845 127.576C192.845 127.555 192.845 127.532 192.845 127.511C192.872 126.63 192.735 125.752 192.442 124.92C191.568 122.45 190.181 120.2 188.875 117.924C188.202 116.746 187.55 115.553 186.915 114.355L187.473 115.071C187.668 115.363 187.925 115.609 188.225 115.792C189.266 116.328 190.355 115.248 191.414 114.75C192.819 114.089 194.464 114.479 196.016 114.589C197.567 114.699 199.438 114.299 199.993 112.862C200.173 112.276 200.207 111.654 200.093 111.051ZM173.339 72.4938C173.339 73.0429 173.375 73.5996 173.418 74.1589C172.897 73.3078 172.295 72.5088 171.62 71.7729L173.339 72.4938Z" fill="url(#paint1_linear_1793_44455)"/>
<path d="M139.771 89.475C140.055 89.099 140.413 88.784 140.822 88.5488C140.717 89.0109 140.521 89.4472 140.244 89.8316C139.797 90.4396 139.326 90.8578 139.195 90.7577C139.064 90.6577 139.319 90.083 139.771 89.475Z" fill="#99D55C"/>
<path opacity="0.1" d="M139.827 89.5212C140.035 89.2417 140.297 89.007 140.598 88.8311C140.52 89.1729 140.374 89.4956 140.169 89.7803C139.835 90.2318 139.486 90.55 139.398 90.4704C139.311 90.3909 139.493 89.9727 139.827 89.5212Z" fill="black"/>
<path d="M139.146 88.9645H139.403C139.42 88.9645 139.436 88.9677 139.451 88.9739C139.466 88.98 139.479 88.9891 139.491 89.0005C139.502 89.012 139.511 89.0256 139.517 89.0405C139.524 89.0554 139.527 89.0715 139.527 89.0876V91.9944H139.039V89.0876C139.038 89.0575 139.049 89.0283 139.069 89.0056C139.089 88.9829 139.117 88.9682 139.146 88.9645Z" fill="#F6987E"/>
<path d="M143.625 94.0467C143.625 95.1354 143.192 96.1794 142.421 96.9492C141.65 97.7191 140.604 98.1515 139.514 98.1515C138.423 98.1515 137.378 97.7191 136.607 96.9492C135.836 96.1794 135.403 95.1354 135.403 94.0467C135.403 92.1662 136.669 91.0527 138.399 90.7269C138.766 90.6592 139.14 90.6257 139.514 90.6269C139.771 90.6265 140.029 90.6419 140.285 90.673C142.186 90.9091 143.625 92.043 143.625 94.0467Z" fill="#FC4A4A"/>
<path opacity="0.1" d="M140.285 90.6731C140.21 90.8142 139.807 90.9296 139.319 90.9296C139 90.9529 138.681 90.8862 138.399 90.7372C138.766 90.6694 139.14 90.636 139.514 90.6371C139.771 90.6334 140.029 90.6454 140.285 90.6731Z" fill="black"/>
<path opacity="0.1" d="M140.2 98.0541C139.109 98.0541 138.064 97.6216 137.293 96.8518C136.522 96.082 136.089 95.038 136.089 93.9493C136.089 92.1021 137.309 90.9964 138.99 90.65C138.791 90.6651 138.594 90.6908 138.399 90.727C136.669 91.0528 135.403 92.1662 135.403 94.0468C135.403 95.1354 135.836 96.1795 136.607 96.9493C137.378 97.7191 138.423 98.1516 139.514 98.1516C139.824 98.1521 140.134 98.1169 140.436 98.0464C140.356 98.0515 140.285 98.0541 140.2 98.0541Z" fill="black"/>
<path d="M158.321 174.032C158.889 174.545 159.758 174.532 160.528 174.476L164.041 174.219C166.831 174.014 169.716 173.783 172.178 172.457C172.438 172.338 172.669 172.162 172.853 171.944C173.049 171.608 173.151 171.226 173.149 170.838C173.481 167.038 174.238 163.287 175.405 159.655C176.946 154.819 179.259 150.052 179.228 144.99C179.228 144.867 179.228 144.734 179.228 144.623C179.184 143.038 178.904 141.47 178.732 139.893C178.447 137.253 178.475 134.592 178.496 131.939C178.474 130.899 178.546 129.86 178.711 128.833C178.873 127.999 179.482 127.162 179.11 126.429C178.388 125.005 175.77 124.481 174.362 124.43C172.465 124.363 170.6 124.859 168.768 125.351C168.211 125.503 167.627 125.664 167.206 126.057C166.641 126.585 166.479 127.414 166.458 128.186C166.361 131.611 168.337 134.797 168.493 138.217C168.522 138.833 168.493 139.5 168.853 140.013C169.09 140.293 169.348 140.554 169.624 140.796C170.395 141.64 170.418 142.912 170.364 144.056C170.341 144.518 170.315 144.98 170.284 145.442C169.864 151.605 168.617 157.684 166.577 163.516C166.38 164.138 166.122 164.74 165.806 165.312C165.29 166.114 164.646 166.827 163.899 167.421C162.841 168.323 161.707 169.133 160.51 169.842C159.711 170.314 158.858 170.766 158.311 171.515C157.764 172.264 157.643 173.401 158.321 174.032Z" fill="#FDA8A8"/>
<path opacity="0.1" d="M158.321 174.032C158.889 174.545 159.758 174.532 160.528 174.476L164.041 174.219C166.831 174.014 169.716 173.783 172.178 172.457C172.438 172.338 172.669 172.162 172.853 171.944C173.049 171.608 173.151 171.226 173.149 170.838C173.481 167.038 174.238 163.287 175.405 159.655C176.946 154.819 179.259 150.052 179.228 144.99C179.228 144.867 179.228 144.734 179.228 144.623C179.184 143.038 178.904 141.47 178.732 139.893C178.447 137.253 178.475 134.592 178.496 131.939C178.474 130.899 178.546 129.86 178.711 128.833C178.873 127.999 179.482 127.162 179.11 126.429C178.388 125.005 175.77 124.481 174.362 124.43C172.465 124.363 170.6 124.859 168.768 125.351C168.211 125.503 167.627 125.664 167.206 126.057C166.641 126.585 166.479 127.414 166.458 128.186C166.361 131.611 168.337 134.797 168.493 138.217C168.522 138.833 168.493 139.5 168.853 140.013C169.09 140.293 169.348 140.554 169.624 140.796C170.395 141.64 170.418 142.912 170.364 144.056C170.341 144.518 170.315 144.98 170.284 145.442C169.864 151.605 168.617 157.684 166.577 163.516C166.38 164.138 166.122 164.74 165.806 165.312C165.29 166.114 164.646 166.827 163.899 167.421C162.841 168.323 161.707 169.133 160.51 169.842C159.711 170.314 158.858 170.766 158.311 171.515C157.764 172.264 157.643 173.401 158.321 174.032Z" fill="black"/>
<path d="M158.321 174.032C158.889 174.545 159.758 174.532 160.528 174.476L164.041 174.219C166.831 174.014 169.716 173.783 172.178 172.457C172.438 172.338 172.669 172.162 172.853 171.944C173.049 171.608 173.151 171.226 173.149 170.838C173.481 167.038 174.238 163.287 175.405 159.655C176.946 154.819 179.259 150.052 179.228 144.99C176.258 145.318 173.272 145.465 170.284 145.431C169.864 151.595 168.617 157.674 166.577 163.506C166.38 164.128 166.122 164.73 165.806 165.301C165.29 166.104 164.646 166.816 163.899 167.41C162.841 168.313 161.707 169.123 160.51 169.832C159.711 170.304 158.858 170.756 158.311 171.505C157.764 172.254 157.643 173.401 158.321 174.032Z" fill="#EEEFF3"/>
<path opacity="0.1" d="M158.321 174.032C158.889 174.545 159.758 174.532 160.528 174.476L164.041 174.219C166.831 174.014 169.716 173.783 172.178 172.457C172.438 172.338 172.669 172.162 172.853 171.944C173.049 171.608 173.151 171.226 173.149 170.838C173.481 167.038 174.238 163.287 175.405 159.655C176.946 154.819 179.259 150.052 179.228 144.99C176.258 145.318 173.272 145.465 170.284 145.431C169.864 151.595 168.617 157.674 166.577 163.506C166.38 164.128 166.122 164.73 165.806 165.301C165.29 166.104 164.646 166.816 163.899 167.41C162.841 168.313 161.707 169.123 160.51 169.832C159.711 170.304 158.858 170.756 158.311 171.505C157.764 172.254 157.643 173.401 158.321 174.032Z" fill="black"/>
<path d="M166.081 172.949C166.925 172.647 167.735 172.26 168.501 171.795L172.373 169.614C172.723 169.388 173.113 169.23 173.521 169.15L173.984 172.6C174.1 173.447 174.161 174.442 173.521 175.009C173.293 175.191 173.031 175.327 172.751 175.41C171.345 175.894 169.829 175.905 168.342 175.951C163.773 176.097 159.159 176.631 154.657 175.83C154.108 175.733 153.512 175.574 153.18 175.138C152.802 174.624 152.91 173.88 153.275 173.36C153.675 172.865 154.184 172.469 154.763 172.203C155.909 171.587 157.098 171.064 158.288 170.538C158.361 170.494 158.448 170.48 158.532 170.497C158.648 170.535 158.684 170.676 158.714 170.794C158.923 171.636 159.601 172.3 160.374 172.698C160.385 172.698 164.37 173.493 166.081 172.949Z" fill="#BBBDC8"/>
<path opacity="0.1" d="M166.081 172.949C166.925 172.647 167.735 172.26 168.501 171.795L172.373 169.614C172.723 169.388 173.113 169.23 173.521 169.15L173.984 172.6C174.1 173.447 174.161 174.442 173.521 175.009C173.293 175.191 173.031 175.327 172.751 175.41C171.345 175.894 169.829 175.905 168.342 175.951C163.773 176.097 159.159 176.631 154.657 175.83C154.108 175.733 153.512 175.574 153.18 175.138C152.802 174.624 152.91 173.88 153.275 173.36C153.675 172.865 154.184 172.469 154.763 172.203C155.909 171.587 157.098 171.064 158.288 170.538C158.361 170.494 158.448 170.48 158.532 170.497C158.648 170.535 158.684 170.676 158.714 170.794C158.923 171.636 159.601 172.3 160.374 172.698C160.385 172.698 164.37 173.493 166.081 172.949Z" fill="black"/>
<path d="M160.89 177.624C161.458 178.137 162.327 178.124 163.097 178.067L166.61 177.811C169.4 177.606 172.285 177.375 174.747 176.048C175.007 175.929 175.238 175.754 175.423 175.535C175.618 175.2 175.72 174.818 175.718 174.43C176.05 170.63 176.807 166.879 177.974 163.246C179.515 158.41 181.828 153.644 181.797 148.582C181.797 148.459 181.797 148.325 181.797 148.215C181.753 146.63 181.473 145.062 181.301 143.484C181.016 140.844 181.044 138.184 181.065 135.531C181.043 134.491 181.115 133.451 181.281 132.424C181.442 131.591 182.051 130.754 181.679 130.02C180.957 128.597 178.339 128.073 176.931 128.022C175.035 127.955 173.169 128.45 171.337 128.943C170.78 129.094 170.197 129.256 169.775 129.648C169.21 130.177 169.048 131.006 169.027 131.778C168.93 135.203 170.906 138.389 171.062 141.809C171.091 142.425 171.062 143.092 171.422 143.605C171.659 143.884 171.917 144.146 172.193 144.387C172.964 145.231 172.987 146.504 172.933 147.648C172.91 148.11 172.884 148.572 172.853 149.034C172.433 155.197 171.186 161.276 169.146 167.108C168.949 167.73 168.691 168.332 168.375 168.903C167.859 169.706 167.215 170.418 166.468 171.012C165.41 171.915 164.276 172.725 163.08 173.434C162.28 173.906 161.427 174.358 160.88 175.107C160.333 175.856 160.212 176.993 160.89 177.624Z" fill="#FDA8A8"/>
<path d="M160.89 177.624C161.458 178.137 162.327 178.124 163.097 178.067L166.61 177.811C169.4 177.606 172.285 177.375 174.747 176.048C175.007 175.929 175.238 175.754 175.423 175.535C175.618 175.2 175.72 174.818 175.718 174.429C176.05 170.63 176.807 166.879 177.974 163.246C179.515 158.41 181.828 153.644 181.797 148.582C178.827 148.91 175.841 149.057 172.853 149.023C172.433 155.186 171.186 161.266 169.146 167.097C168.949 167.72 168.691 168.321 168.375 168.893C167.859 169.696 167.215 170.408 166.468 171.002C165.41 171.904 164.276 172.715 163.08 173.424C162.28 173.896 161.427 174.347 160.88 175.097C160.333 175.846 160.212 176.992 160.89 177.624Z" fill="#EEEFF3"/>
<path d="M168.65 176.541C169.494 176.239 170.305 175.852 171.07 175.387L174.942 173.206C175.292 172.98 175.682 172.822 176.091 172.741L176.553 176.192C176.669 177.039 176.731 178.034 176.091 178.601C175.862 178.783 175.6 178.919 175.32 179.001C173.915 179.486 172.399 179.496 170.911 179.543C166.343 179.689 161.728 180.222 157.227 179.422C156.677 179.325 156.081 179.166 155.749 178.729C155.372 178.216 155.48 177.472 155.845 176.951C156.244 176.456 156.754 176.06 157.332 175.794C158.478 175.179 159.668 174.655 160.857 174.129C160.931 174.086 161.018 174.071 161.101 174.088C161.217 174.127 161.253 174.268 161.284 174.386C161.492 175.227 162.17 175.892 162.944 176.29C162.954 176.29 166.939 177.085 168.65 176.541Z" fill="#BBBDC8"/>
<path d="M155.909 73.5559C157.16 72.0166 157.193 69.8667 157.163 67.8912C157.163 67.1216 157.139 66.3263 157.111 65.5438V65.5258C157.076 64.0877 156.924 62.6548 156.656 61.2414C156.521 60.5631 156.341 59.8946 156.117 59.2403C156.286 59.2018 156.456 59.1659 156.631 59.1351C159.324 58.604 162.095 58.604 164.788 59.1351C165.253 59.2275 166.43 59.207 167.101 59.4353C167.292 59.4808 167.458 59.5973 167.566 59.7611C167.697 60.0356 167.427 60.8309 167.232 61.5364C167.124 61.8544 167.064 62.1863 167.052 62.5216C167.078 62.8367 167.126 63.1496 167.196 63.458C167.316 64.025 167.476 64.5868 167.55 65.1615C167.681 66.1415 167.566 67.1395 167.63 68.1273C167.694 69.115 167.979 70.154 168.732 70.798C164.358 71.1724 160.049 72.0991 155.909 73.5559Z" fill="#FDA8A8"/>
<path opacity="0.1" d="M168.221 63.3451C167.879 63.3734 167.54 63.4067 167.193 63.4452C163.771 63.81 160.393 64.5147 157.111 65.5489V65.5309L156.656 61.2465C156.656 60.99 156.656 60.7334 156.656 60.4641C156.656 60.0253 156.644 59.5815 156.633 59.1402C159.326 58.6092 162.098 58.6092 164.791 59.1402C165.256 59.2326 166.433 59.2121 167.103 59.4404C167.103 59.8586 167.103 60.2768 167.119 60.6949C167.136 60.9797 167.174 61.2627 167.234 61.5416C167.357 62.2342 167.704 62.8676 168.221 63.3451Z" fill="black"/>
<path d="M161.738 64.5228C166.989 64.5228 171.245 60.2729 171.245 55.0304C171.245 49.7879 166.989 45.538 161.738 45.538C156.488 45.538 152.232 49.7879 152.232 55.0304C152.232 60.2729 156.488 64.5228 161.738 64.5228Z" fill="#FDA8A8"/>
<path d="M153.388 90.8218C151.7 84.857 153.242 78.4509 157.273 73.7406C158.17 72.6913 159.071 71.6138 160.248 70.9852C161.648 70.2412 163.306 70.2156 164.891 70.2002C166.291 70.2002 167.735 70.2002 169.022 70.7569C170.762 71.4983 171.962 73.1095 172.974 74.7078C174.053 76.4113 175.029 78.2559 175.194 80.2673C175.281 81.4602 175.071 82.6712 175.248 83.859C175.474 85.365 176.314 86.7144 176.658 88.1973C176.846 88.9977 176.884 89.8264 177.005 90.6422C177.187 91.7583 177.452 92.8593 177.797 93.9364C180.349 102.4 183.845 110.551 188.218 118.237C189.502 120.502 190.877 122.742 191.74 125.197C192.131 126.308 192.413 127.506 192.095 128.65C191.563 130.549 189.161 131.665 187.365 130.846C187.431 131.057 187.418 131.285 187.327 131.487C187.236 131.688 187.074 131.849 186.871 131.939C186.444 132.132 185.978 132.22 185.51 132.196L169.642 132.617C169.225 132.627 168.81 132.683 168.406 132.783C166.54 133.261 167.242 134.066 167.041 134.738C166.797 135.559 165.618 135.493 164.796 135.251C164.922 136.45 164.95 137.914 163.401 138.263C162.999 138.345 162.583 138.331 162.188 138.222C159.377 137.499 156.462 137.265 153.571 137.53C152.512 137.627 151.302 137.745 150.518 137.017C149.927 136.475 149.773 135.613 149.673 134.818C148.093 122.247 151.343 109.658 153.784 97.2382C154.113 95.5629 153.994 92.8486 153.501 91.2118L153.388 90.8218Z" fill="#F75842"/>
<path d="M174.456 82.1582C174.829 83.2305 175.294 84.285 175.42 85.4138C175.52 86.3169 175.399 87.2302 175.453 88.1358C175.552 89.1413 175.76 90.1331 176.073 91.0939C176.567 92.9624 177.177 94.7986 177.899 96.5918C178.244 97.3999 178.642 98.2901 178.364 99.1239C178.087 99.9577 177.226 100.473 176.98 101.302C176.723 102.177 177.236 103.098 177.892 103.737C178.547 104.376 179.366 104.83 179.973 105.51C180.633 106.251 181.001 107.198 181.466 108.075C182.126 109.236 182.883 110.338 183.729 111.372L186.835 115.397C187.029 115.687 187.283 115.932 187.581 116.115C188.608 116.649 189.685 115.574 190.731 115.089C192.118 114.43 193.742 114.817 195.276 114.928C196.81 115.038 198.657 114.64 199.204 113.209C199.385 112.628 199.423 112.012 199.315 111.413C199.074 109.366 198.481 107.376 197.562 105.53C197.002 104.406 196.319 103.331 195.967 102.128C195.679 101.151 195.622 100.122 195.394 99.1291C195.165 98.1362 194.762 97.187 194.438 96.2172C192.141 89.3262 193.868 81.7862 193.125 74.5617C192.85 71.8961 192.036 68.974 189.739 67.586C188.374 66.7625 186.735 66.6342 185.114 66.5598L184.382 66.5265L183.202 66.4675C181.496 66.3828 179.785 66.3187 178.123 66.6804C175.785 67.1935 172.971 69.0073 172.879 71.6139C172.778 75.194 173.312 78.7637 174.456 82.1582Z" fill="#8F5BD7"/>
<path opacity="0.1" d="M183.215 66.4572C183.531 68.2029 183.688 69.9734 183.686 71.7472C183.732 76.8116 184.279 81.8554 184.829 86.8838L185.191 90.219C185.258 90.8347 185.338 91.4812 185.705 91.9764C186.072 92.4715 186.843 92.7306 187.329 92.3483C187.627 91.1708 187.568 89.9342 187.509 88.7207C187.38 86.1398 187.253 83.558 187.126 80.9754C187.002 78.4612 186.869 75.9444 186.563 73.4456C186.323 71.5101 185.97 69.5904 185.505 67.6963C185.416 67.3039 185.293 66.9201 185.137 66.5495L184.405 66.5162L183.215 66.4572Z" fill="black"/>
<path d="M166.427 68.6275C164.852 68.4018 163.203 68.2863 161.708 68.8328C160.279 69.3587 159.138 70.4388 158.11 71.5753C157.41 72.3077 156.83 73.1469 156.394 74.0613C155.518 76.0727 155.86 78.3919 156.394 80.5213C157.851 86.386 160.744 92.043 165.387 95.9144C166.8 97.061 168.305 98.0906 169.886 98.993C171.941 100.196 174.063 101.302 176.337 101.997C176.972 102.192 177.648 102.356 178.298 102.218C178.948 102.079 179.562 101.553 179.582 100.889C175.857 98.798 172.517 96.0965 169.2 93.4079C168.29 92.7075 167.439 91.9353 166.653 91.0989C165.477 89.7777 164.647 88.1819 163.506 86.8299C162.478 85.6164 161.194 84.5927 160.423 83.2048C159.939 82.2569 159.615 81.2358 159.465 80.1826C159.084 78.0353 159.012 75.7545 159.865 73.7457C160.718 71.7369 162.674 70.0873 164.857 70.1232C165.978 70.1412 167.044 70.585 168.077 71.0186L174.577 73.7586C174.498 73.7226 174.95 72.5964 174.929 72.4399C174.868 71.9499 174.78 71.9422 174.415 71.5702C173.794 70.9493 172.828 70.5132 172.039 70.1514C170.251 69.3776 168.361 68.8644 166.427 68.6275Z" fill="#8F5BD7"/>
<path d="M153.488 53.2344C155.343 52.823 157.059 51.9392 158.47 50.6689L157.111 57.7908C158.465 57.1702 159.778 56.4641 161.042 55.6768C161.225 58.935 160.96 62.2676 159.758 65.3001C158.555 68.3325 156.338 71.0468 153.363 72.3937C156.004 72.835 158.375 70.9416 160.726 69.6614C162.365 68.7712 165.166 69.6871 166.959 69.1483C168.48 68.7019 170.043 68.312 171.415 67.5141C173.963 66.0287 174.541 61.6904 175.058 58.7913C175.574 55.8923 175.104 52.8907 174.246 50.0686C173.96 49.0691 173.574 48.1013 173.092 47.1798C172.43 45.9698 171.524 44.9099 170.432 44.0673C169.339 43.2247 168.082 42.6176 166.743 42.2844C165.403 41.9512 164.008 41.8991 162.647 42.1315C161.286 42.3638 159.988 42.8755 158.835 43.6343C156.466 45.1915 154.27 47.4825 152.461 49.6555C152.204 49.9557 151.143 51.023 151.495 51.4719C151.924 52.0158 154.442 50.4662 154.868 50.2559C154.745 50.7202 153.979 53.1139 153.488 53.2344Z" fill="#FFD566"/>
<g opacity="0.1">
<path d="M164.179 136.211C163.777 136.292 163.362 136.278 162.967 136.17C160.155 135.447 157.24 135.213 154.349 135.477C153.291 135.575 152.08 135.693 151.297 134.964C150.706 134.423 150.552 133.561 150.451 132.766C148.871 120.194 152.122 107.605 154.562 95.1858C154.891 93.5105 154.773 90.7962 154.28 89.1594L154.164 88.7618C153.213 85.37 153.269 81.7754 154.326 78.415C152.573 82.3147 152.241 86.7037 153.388 90.8219L153.504 91.2195C153.997 92.8563 154.115 95.5809 153.786 97.2459C151.353 109.666 148.103 122.262 149.676 134.826C149.776 135.621 149.932 136.483 150.521 137.024C151.292 137.745 152.515 137.627 153.573 137.537C156.464 137.273 159.379 137.507 162.191 138.23C162.586 138.338 163.001 138.352 163.403 138.271C164.667 137.986 164.881 136.958 164.85 135.939C164.645 136.069 164.417 136.162 164.179 136.211Z" fill="black"/>
<path d="M188.141 128.794C188.207 129.005 188.194 129.233 188.103 129.434C188.012 129.636 187.85 129.797 187.647 129.887C187.22 130.08 186.753 130.167 186.286 130.144L170.418 130.564C170.001 130.575 169.586 130.631 169.182 130.731C167.316 131.208 168.018 132.014 167.817 132.686C167.573 133.507 166.394 133.44 165.572 133.199C165.649 133.93 165.687 134.759 165.356 135.375C166.078 135.482 166.854 135.388 167.047 134.738C167.239 134.089 166.546 133.261 168.411 132.784C168.815 132.683 169.23 132.627 169.647 132.617L185.505 132.196C185.972 132.22 186.439 132.132 186.866 131.939C187.069 131.85 187.231 131.688 187.322 131.487C187.412 131.285 187.426 131.057 187.36 130.847C189.158 131.665 191.558 130.549 192.09 128.65C192.17 128.363 192.215 128.066 192.223 127.768C191.262 128.917 189.523 129.43 188.141 128.794Z" fill="black"/>
</g>
<path d="M166.854 75.1851C168.219 78.0826 169.426 81.0519 170.469 84.0797C171.312 86.5195 172.054 89.0825 171.774 91.648C171.494 94.2135 169.976 96.8047 167.509 97.6128C166.461 97.9566 165.338 97.9592 164.236 97.9848C161.596 98.0467 158.961 98.2591 156.346 98.6211C155.128 98.8221 153.901 98.9583 152.669 99.029C150.927 99.0854 149.185 98.8135 147.448 98.9546C144.637 99.1829 141.968 100.494 139.147 100.494C138.802 100.515 138.458 100.452 138.144 100.309C137.631 100.032 137.402 99.4318 137.227 98.8776C136.834 97.6256 136.526 96.1889 137.191 95.0576C138.011 93.6645 139.874 93.3848 141.49 93.2617C145.128 93.0051 148.77 92.8256 152.417 92.7229C155.528 92.6357 158.899 92.5177 161.312 90.5525C161.475 90.4363 161.608 90.2834 161.7 90.1061C161.791 89.8058 161.78 89.4838 161.669 89.1902C160.713 85.4591 160.303 81.6094 160.451 77.7608C160.435 77.4156 160.524 77.0736 160.708 76.7808C160.927 76.546 161.21 76.3816 161.523 76.3088C163.677 75.6186 165.983 75.5545 168.172 76.124" fill="#FDA8A8"/>
<path d="M160.387 77.7583C160.014 77.8864 159.69 78.1255 159.457 78.4433C159.56 77.3735 159.421 76.2934 159.442 75.2159C159.462 74.1384 159.663 73.0147 160.343 72.1783C161.209 71.1111 162.681 70.7288 164.059 70.6929C166.058 70.639 168.126 71.2188 169.59 72.5785C170.533 73.4598 171.145 74.6368 171.325 75.9137C171.371 76.2652 171.525 77.5839 171.158 77.8096C170.836 78.0097 169.616 77.3196 169.223 77.2093C166.304 76.3527 163.177 76.5471 160.387 77.7583Z" fill="#F75842"/>
<path opacity="0.1" d="M121.529 17.189C122.522 17.189 123.327 16.385 123.327 15.3932C123.327 14.4013 122.522 13.5973 121.529 13.5973C120.535 13.5973 119.73 14.4013 119.73 15.3932C119.73 16.385 120.535 17.189 121.529 17.189Z" fill="#8F5BD7"/>
<path opacity="0.1" d="M133.604 51.8234C134.598 51.8234 135.403 51.0194 135.403 50.0276C135.403 49.0357 134.598 48.2317 133.604 48.2317C132.611 48.2317 131.806 49.0357 131.806 50.0276C131.806 51.0194 132.611 51.8234 133.604 51.8234Z" fill="#8F5BD7"/>
<path opacity="0.1" d="M99.4326 18.9848C100.426 18.9848 101.231 18.1808 101.231 17.1889C101.231 16.1971 100.426 15.3931 99.4326 15.3931C98.4393 15.3931 97.634 16.1971 97.634 17.1889C97.634 18.1808 98.4393 18.9848 99.4326 18.9848Z" fill="#8F5BD7"/>
<path opacity="0.1" d="M44.1922 103.647C46.7463 103.647 48.8169 101.579 48.8169 99.0289C48.8169 96.4785 46.7463 94.411 44.1922 94.411C41.638 94.411 39.5674 96.4785 39.5674 99.0289C39.5674 101.579 41.638 103.647 44.1922 103.647Z" fill="#8F5BD7"/>
<path opacity="0.1" d="M230.468 27.451C231.461 27.451 232.266 26.6469 232.266 25.6551C232.266 24.6633 231.461 23.8593 230.468 23.8593C229.474 23.8593 228.669 24.6633 228.669 25.6551C228.669 26.6469 229.474 27.451 230.468 27.451Z" fill="#8F5BD7"/>
<path opacity="0.1" d="M232.523 55.9283C235.787 55.9283 238.433 53.2865 238.433 50.0276C238.433 46.7688 235.787 44.127 232.523 44.127C229.26 44.127 226.614 46.7688 226.614 50.0276C226.614 53.2865 229.26 55.9283 232.523 55.9283Z" fill="#8F5BD7"/>
<path opacity="0.1" d="M242.029 35.1476C243.023 35.1476 243.828 34.3436 243.828 33.3518C243.828 32.3599 243.023 31.5559 242.029 31.5559C241.036 31.5559 240.231 32.3599 240.231 33.3518C240.231 34.3436 241.036 35.1476 242.029 35.1476Z" fill="#8F5BD7"/>
<path opacity="0.1" d="M226.1 67.9863C227.093 67.9863 227.898 67.1822 227.898 66.1904C227.898 65.1986 227.093 64.3945 226.1 64.3945C225.106 64.3945 224.301 65.1986 224.301 66.1904C224.301 67.1822 225.106 67.9863 226.1 67.9863Z" fill="#8F5BD7"/>
<path opacity="0.1" d="M117.932 31.5558C118.925 31.5558 119.73 30.7518 119.73 29.76C119.73 28.7681 118.925 27.9641 117.932 27.9641C116.938 27.9641 116.133 28.7681 116.133 29.76C116.133 30.7518 116.938 31.5558 117.932 31.5558Z" fill="#8F5BD7"/>
<path opacity="0.1" d="M50.6154 122.375C51.6087 122.375 52.4139 121.571 52.4139 120.579C52.4139 119.587 51.6087 118.783 50.6154 118.783C49.6221 118.783 48.8169 119.587 48.8169 120.579C48.8169 121.571 49.6221 122.375 50.6154 122.375Z" fill="#8F5BD7"/>
<path opacity="0.1" d="M47.7892 81.327C48.7825 81.327 49.5878 80.5229 49.5878 79.5311C49.5878 78.5393 48.7825 77.7352 47.7892 77.7352C46.7959 77.7352 45.9907 78.5393 45.9907 79.5311C45.9907 80.5229 46.7959 81.327 47.7892 81.327Z" fill="#8F5BD7"/>
<path opacity="0.1" d="M146.451 15.3931C147.444 15.3931 148.25 14.5891 148.25 13.5973C148.25 12.6054 147.444 11.8014 146.451 11.8014C145.458 11.8014 144.653 12.6054 144.653 13.5973C144.653 14.5891 145.458 15.3931 146.451 15.3931Z" fill="#8F5BD7"/>
<path opacity="0.1" d="M152.361 31.5558C153.354 31.5558 154.159 30.7518 154.159 29.76C154.159 28.7681 153.354 27.9641 152.361 27.9641C151.367 27.9641 150.562 28.7681 150.562 29.76C150.562 30.7518 151.367 31.5558 152.361 31.5558Z" fill="#8F5BD7"/>
</g>
<defs>
<linearGradient id="paint0_linear_1793_44455" x1="98.8056" y1="180.774" x2="98.8056" y2="42.0744" gradientUnits="userSpaceOnUse">
<stop stop-color="#808080" stop-opacity="0.25"/>
<stop offset="0.54" stop-color="#808080" stop-opacity="0.12"/>
<stop offset="1" stop-color="#808080" stop-opacity="0.1"/>
</linearGradient>
<linearGradient id="paint1_linear_1793_44455" x1="167.776" y1="179.853" x2="167.776" y2="41.3048" gradientUnits="userSpaceOnUse">
<stop stop-color="#808080" stop-opacity="0.25"/>
<stop offset="0.54" stop-color="#808080" stop-opacity="0.12"/>
<stop offset="1" stop-color="#808080" stop-opacity="0.1"/>
</linearGradient>
<clipPath id="clip0_1793_44455">
<rect width="278" height="186" fill="white"/>
</clipPath>
</defs>
</svg>
