<svg width="235" height="191" viewBox="0 0 235 191" fill="none" xmlns="http://www.w3.org/2000/svg">
<g clip-path="url(#clip0_1793_44554)">
<path d="M235 19.1181V171.882C235 182.442 225.4 191 213.553 191H21.4467C9.60048 191 0 182.442 0 171.882V19.1181C0 8.55808 9.60048 0 21.4467 0H213.553C225.4 0 235 8.55808 235 19.1181Z" fill="#F9F9F9"/>
<path d="M78.3691 190.496L92.1187 187.518L108.05 184.063C108.05 184.063 108.913 186.701 110.123 190.496H78.3691Z" fill="#2F2E41"/>
<path d="M113.174 188.785C113.174 188.785 113.045 189.473 112.781 190.496H48.5914C47.8833 188.341 47.5679 186.122 48.4111 184.288C48.553 183.968 48.7323 183.666 48.9454 183.388C49.1033 183.169 49.2799 182.965 49.4732 182.777C50.7349 181.529 51.5073 178.84 51.9708 175.778C52.5272 171.591 52.7575 167.367 52.6596 163.144C52.666 163.137 52.666 163.137 52.6596 163.137C52.6467 162.14 52.6209 161.542 52.6209 161.542C52.6209 161.542 52.3763 157.856 52.0995 152.285C52.106 152.285 52.0995 152.279 52.0995 152.279C51.34 137.246 50.31 108.465 52.9814 100.836C53.1518 100.193 53.4972 99.6096 53.9791 99.1507C57.5754 96.5568 61.4022 94.298 65.4113 92.4027C65.643 92.2997 65.7653 92.2418 65.7653 92.2418L74.5777 92.0746L85.5206 90.1448L93.1227 88.7552C93.1227 88.7552 93.6828 88.7938 94.5582 88.9161C97.4677 89.3149 103.866 90.6208 104.767 94.4033C104.767 94.4097 104.774 94.4161 104.774 94.4225C104.888 94.9184 104.907 95.4312 104.832 95.9342C103.969 102.238 110.059 140.957 111.912 142.893C113.766 144.83 113.277 151.906 108.694 156.402C107.886 157.234 107.298 158.253 106.982 159.368C105.25 164.932 107.967 174.022 110.625 178.274C112.557 181.424 113.448 185.101 113.174 188.785Z" fill="#3F3D56"/>
<path d="M148.229 65.0035L148.044 58.2721L147.798 49.2452L140.597 48.9126L139.588 57.8815L138.649 66.216L148.229 65.0035Z" fill="#A0616A"/>
<path d="M74.4685 93.5056L84.571 104.34C84.571 104.34 127.376 111.249 127.662 107.622C127.949 103.994 125.129 102.943 129.751 103.266C134.373 103.588 135.484 106.869 136.188 103.731C136.892 100.593 133.017 100.516 137.504 100.071C141.991 99.6258 151.792 60.475 151.792 60.475L136.159 62.9948C136.159 62.9948 133.12 81.9244 131.215 84.3435C129.309 86.7626 127.397 88.4985 126.222 88.6032C125.047 88.7078 74.4685 93.5056 74.4685 93.5056Z" fill="#3F3D56"/>
<path d="M80.2622 79.4982C88.4587 79.4982 95.1032 72.8581 95.1032 64.667C95.1032 56.476 88.4587 49.8358 80.2622 49.8358C72.0657 49.8358 65.4211 56.476 65.4211 64.667C65.4211 72.8581 72.0657 79.4982 80.2622 79.4982Z" fill="#A0616A"/>
<path d="M68.6971 77.44L74.5805 78.5658C74.5805 78.5658 69.1091 69.74 69.4309 65.7002C69.7528 61.6604 74.1557 60.213 74.1557 60.213C74.1557 60.213 76.5953 60.7405 79.1637 61.0365C79.4713 60.1709 79.8705 59.3407 80.3545 58.5598C80.4498 59.5679 80.8964 60.5105 81.6162 61.223C82.5575 61.3038 83.5054 61.1944 84.4035 60.9014C85.4205 60.4382 85.4012 59.6341 85.0665 58.8815C89.9651 59.1195 94.6061 61.4996 94.6061 61.4996C94.7542 59.5247 94.6786 57.5394 94.3809 55.5815C94.2392 55.5429 94.0977 55.4979 93.956 55.4528C93.0787 55.1755 92.2329 54.8068 91.4327 54.3528C92.3233 54.2347 93.1553 53.8437 93.8144 53.2335C93.2737 51.651 92.4112 50.2809 91.0529 49.6119C89.7425 48.9714 88.3097 48.6199 86.8515 48.581C85.3933 48.5422 83.9438 48.817 82.6011 49.3867C82.6011 49.3867 85.7488 47.0902 84.5901 46.151C84.5129 46.2282 84.4356 46.299 84.3519 46.3698C84.2425 46.4598 84.1202 46.5563 84.0043 46.6464C83.2898 47.2253 82.2213 46.4083 82.0797 45.5335C82.0644 45.423 82.0429 45.3135 82.0153 45.2054C81.996 45.1153 81.9702 45.0253 81.9445 44.9417C81.9226 44.8674 81.8968 44.7944 81.8672 44.7229C79.7237 44.2083 73.2416 46.2989 70.7505 50.9048C70.7505 50.9048 53.3383 59.2675 68.6971 77.44Z" fill="#3F3D56"/>
<path d="M61.5815 190.496H53.2647L52.9813 190.026L48.9455 183.388L46.718 179.721L51.9707 175.778L54.4428 173.925L59.8947 186.578L61.5815 190.496Z" fill="#A0616A"/>
<path d="M65.4141 92.4027L86.167 140.32L94.5609 88.9161C93.6855 88.7939 93.1255 88.7553 93.1255 88.7553L89.5529 81.8208L69.0896 82.8822L65.7681 92.2419C65.7681 92.2419 65.6458 92.2998 65.4141 92.4027Z" fill="#8F5BD7"/>
<path opacity="0.5" d="M192.086 99.6907H145.107C137.658 99.6907 131.62 105.725 131.62 113.169V130.142C131.62 137.585 137.658 143.62 145.107 143.62H192.086C199.535 143.62 205.573 137.585 205.573 130.142V113.169C205.573 105.725 199.535 99.6907 192.086 99.6907Z" fill="#C4AAE8"/>
<path d="M192.087 144.124H145.107C141.398 144.119 137.841 142.645 135.219 140.024C132.596 137.402 131.12 133.849 131.116 130.142V113.169C131.12 109.462 132.596 105.908 135.219 103.287C137.841 100.665 141.398 99.1909 145.107 99.1866H192.087C195.796 99.1909 199.352 100.665 201.975 103.287C204.598 105.908 206.073 109.462 206.078 113.169V130.142C206.073 133.849 204.598 137.402 201.975 140.024C199.352 142.645 195.796 144.119 192.087 144.124ZM145.107 100.195C141.665 100.198 138.365 101.567 135.931 103.999C133.498 106.431 132.128 109.729 132.125 113.169V130.142C132.128 133.581 133.498 136.879 135.931 139.311C138.365 141.744 141.665 143.112 145.107 143.116H192.087C195.529 143.112 198.828 141.744 201.262 139.311C203.696 136.879 205.065 133.581 205.069 130.142V113.169C205.065 109.729 203.696 106.431 201.262 103.999C198.828 101.567 195.529 100.198 192.087 100.195L145.107 100.195Z" fill="#8F5BD7"/>
<path d="M168.536 134.101C174.485 134.101 179.308 129.281 179.308 123.336C179.308 117.391 174.485 112.572 168.536 112.572C162.587 112.572 157.765 117.391 157.765 123.336C157.765 129.281 162.587 134.101 168.536 134.101Z" fill="#A0616A"/>
<path d="M170.898 134.04C169.576 131.093 176.741 124.979 172.15 124.669C172.15 124.669 169.132 119.381 167.216 120.799C164.997 122.44 161.764 119.459 159.864 117.464C160.268 117.139 160.631 116.764 160.944 116.35C160.34 116.461 159.729 116.525 159.115 116.542C158.888 116.205 158.728 115.827 158.647 115.428C158.557 115.052 158.586 114.657 158.728 114.297C158.87 113.937 159.119 113.629 159.441 113.414C160.137 113.026 161.027 113.263 161.771 112.985C161.863 112.94 161.944 112.872 162.005 112.789C162.066 112.706 162.107 112.609 162.122 112.507C162.178 112.267 162.286 112.042 162.439 111.848C162.592 111.654 162.785 111.496 163.006 111.386C163.227 111.276 163.469 111.215 163.716 111.209C163.963 111.203 164.208 111.251 164.434 111.351C164.52 111.4 164.617 111.427 164.716 111.429C165.235 111.396 165.747 111.302 166.244 111.147C165.687 110.887 165.151 110.585 164.64 110.243C164.535 110.172 164.43 110.101 164.327 110.025C164.79 109.65 165.328 109.379 165.905 109.23C166.482 109.082 167.084 109.06 167.671 109.166C168.901 109.405 170.086 109.832 171.185 110.434C171.837 110.751 172.486 111.067 173.135 111.383C174.535 111.999 175.866 112.761 177.106 113.657C178.399 114.673 179.452 115.961 180.189 117.431C180.926 118.9 181.329 120.514 181.37 122.157C181.429 125.435 178.623 134.419 170.898 134.04Z" fill="#2F2E41"/>
<path opacity="0.5" d="M104.517 142.535H57.5379C50.0893 142.535 44.051 148.57 44.051 156.013V172.986C44.051 180.43 50.0893 186.464 57.5379 186.464H104.517C111.966 186.464 118.004 180.43 118.004 172.986V156.013C118.004 148.57 111.966 142.535 104.517 142.535Z" fill="#C4AAE8"/>
<path d="M104.517 186.968H57.538C53.8286 186.964 50.2724 185.49 47.6494 182.868C45.0265 180.247 43.5511 176.693 43.5469 172.986V156.013C43.5511 152.306 45.0265 148.752 47.6494 146.131C50.2724 143.51 53.8286 142.036 57.538 142.031H104.517C108.227 142.036 111.783 143.51 114.406 146.131C117.029 148.752 118.504 152.306 118.509 156.013V172.986C118.504 176.693 117.029 180.247 114.406 182.868C111.783 185.49 108.227 186.964 104.517 186.968ZM57.538 143.039C54.096 143.043 50.7961 144.411 48.3623 146.844C45.9284 149.276 44.5594 152.574 44.5555 156.013V172.986C44.5594 176.426 45.9284 179.724 48.3623 182.156C50.7961 184.588 54.096 185.956 57.538 185.96H104.517C107.959 185.956 111.259 184.588 113.693 182.156C116.127 179.724 117.496 176.426 117.5 172.986V156.013C117.496 152.574 116.127 149.276 113.693 146.844C111.259 144.411 107.959 143.043 104.517 143.039H57.538Z" fill="#8F5BD7"/>
<path d="M81.7491 178.51C87.7935 178.51 92.6935 173.613 92.6935 167.573C92.6935 161.532 87.7935 156.635 81.7491 156.635C75.7047 156.635 70.8047 161.532 70.8047 167.573C70.8047 173.613 75.7047 178.51 81.7491 178.51Z" fill="#FFB6B6"/>
<path d="M74.6196 170.383C74.4834 170.337 74.339 170.321 74.1962 170.336C74.0533 170.351 73.9154 170.396 73.7915 170.469C73.6677 170.541 73.5609 170.64 73.4783 170.757C73.3958 170.874 73.3394 171.008 73.313 171.149C73.2769 171.439 73.3004 171.733 73.382 172.013C73.4636 172.294 73.6016 172.554 73.7876 172.779C74.1613 173.226 74.4962 173.705 74.7887 174.209C74.9314 174.464 74.9983 174.754 74.9814 175.046C74.9646 175.337 74.8647 175.618 74.6936 175.855C74.5071 176.036 74.273 176.161 74.0184 176.215C73.7637 176.268 73.4991 176.249 73.2552 176.158C72.7696 175.969 72.3404 175.659 72.0077 175.257C69.9154 172.989 67.7327 169.223 68.8024 166.329C68.8912 166.019 68.9264 165.697 68.9067 165.376C68.9272 165.008 68.9954 164.453 68.6484 164.328C67.6798 163.978 70.3975 158.321 74.5921 157.09C74.3878 155.158 84.4791 152.379 83.9282 154.804C83.8293 155.24 84.8038 155.003 85.25 155.027C88.6738 155.213 92.5406 156.072 92.2288 160.038C92.1081 161.574 92.7437 161.219 93.2541 162.673C92.459 163.147 92.1981 164.185 91.5852 163.492C90.9723 162.799 90.4488 161.931 89.5702 161.64C88.6347 161.33 87.6196 161.793 86.8217 162.372C86.0238 162.95 85.2918 163.668 84.354 163.971C83.3021 164.311 82.1552 164.075 81.0584 164.212C79.4936 164.48 78.0805 165.31 77.0841 166.545C76.102 167.773 75.273 169.116 74.6156 170.544" fill="#2F2E41"/>
<path d="M68.4653 99.0317L53.6601 99.675C53.6601 99.675 31.7742 136.985 34.349 139.558C36.9238 142.131 39.5542 140.671 36.3079 143.974C33.0616 147.278 29.843 145.991 31.7741 148.564C33.7053 151.137 36.2801 148.242 33.7053 151.941C31.1304 155.64 52.0508 190.496 52.0508 190.496L61.0627 185.993C61.0627 185.993 52.293 162.964 51.6892 159.946C51.0853 156.927 51.0056 154.346 51.6892 153.385C52.3727 152.424 68.4653 99.0317 68.4653 99.0317Z" fill="#3F3D56"/>
<path d="M144.286 110.758C146.204 110.758 147.758 109.205 147.758 107.289C147.758 105.373 146.204 103.82 144.286 103.82C142.369 103.82 140.815 105.373 140.815 107.289C140.815 109.205 142.369 110.758 144.286 110.758Z" fill="#8F5BD7"/>
<path d="M143.813 109.094C143.753 109.094 143.694 109.081 143.64 109.054C143.587 109.027 143.54 108.988 143.504 108.94L142.557 107.678C142.526 107.638 142.504 107.592 142.491 107.542C142.478 107.493 142.475 107.442 142.482 107.391C142.489 107.341 142.506 107.293 142.532 107.249C142.558 107.205 142.592 107.167 142.633 107.136C142.673 107.106 142.72 107.083 142.769 107.071C142.819 107.058 142.87 107.056 142.92 107.063C142.971 107.07 143.019 107.088 143.063 107.114C143.106 107.14 143.145 107.174 143.175 107.215L143.794 108.041L145.386 105.656C145.442 105.57 145.531 105.511 145.631 105.491C145.731 105.471 145.836 105.492 145.921 105.549C146.006 105.605 146.065 105.694 146.085 105.794C146.106 105.894 146.085 105.999 146.028 106.084L144.134 108.923C144.1 108.974 144.054 109.016 144 109.046C143.946 109.076 143.885 109.093 143.824 109.094L143.813 109.094Z" fill="white"/>
<path d="M59.5653 154.098C61.4823 154.098 63.0364 152.545 63.0364 150.63C63.0364 148.714 61.4823 147.161 59.5653 147.161C57.6483 147.161 56.0942 148.714 56.0942 150.63C56.0942 152.545 57.6483 154.098 59.5653 154.098Z" fill="#8F5BD7"/>
<path d="M59.0919 152.435C59.032 152.435 58.9728 152.421 58.9192 152.394C58.8656 152.367 58.819 152.328 58.783 152.28L57.8361 151.019C57.8053 150.978 57.7828 150.932 57.7699 150.883C57.757 150.833 57.754 150.782 57.761 150.732C57.7681 150.681 57.785 150.633 57.8109 150.589C57.8367 150.545 57.871 150.507 57.9118 150.476C57.9525 150.446 57.9989 150.424 58.0482 150.411C58.0976 150.399 58.1489 150.396 58.1993 150.403C58.2497 150.411 58.2981 150.428 58.3418 150.454C58.3855 150.48 58.4236 150.515 58.4538 150.556L59.0734 151.381L60.6646 148.996C60.6927 148.954 60.7288 148.918 60.771 148.889C60.8131 148.861 60.8604 148.842 60.9101 148.832C60.9598 148.822 61.011 148.822 61.0608 148.831C61.1105 148.841 61.1578 148.861 61.2 148.889C61.2422 148.917 61.2784 148.953 61.3066 148.995C61.3349 149.037 61.3545 149.085 61.3645 149.134C61.3744 149.184 61.3744 149.235 61.3646 149.285C61.3548 149.335 61.3352 149.382 61.3071 149.424L59.4132 152.263C59.3789 152.314 59.3328 152.357 59.2788 152.387C59.2248 152.416 59.1644 152.433 59.1026 152.435L59.0919 152.435Z" fill="white"/>
<path d="M194.211 112.61C193.534 112.61 192.871 112.409 192.307 112.032C191.744 111.656 191.305 111.121 191.045 110.496C190.786 109.87 190.718 109.181 190.85 108.517C190.983 107.852 191.309 107.242 191.788 106.763C192.267 106.284 192.878 105.958 193.543 105.826C194.208 105.694 194.897 105.762 195.523 106.021C196.149 106.28 196.684 106.719 197.061 107.282C197.437 107.845 197.638 108.508 197.638 109.185C197.638 110.093 197.277 110.964 196.635 111.607C195.992 112.249 195.12 112.61 194.211 112.61Z" fill="#E6E6E6"/>
<path d="M195.407 109.902L194.69 109.185L195.407 108.468C195.438 108.437 195.464 108.4 195.481 108.359C195.498 108.318 195.507 108.274 195.507 108.229C195.507 108.184 195.499 108.14 195.482 108.099C195.465 108.058 195.44 108.021 195.408 107.989C195.377 107.958 195.339 107.933 195.298 107.916C195.257 107.899 195.213 107.89 195.168 107.89C195.123 107.89 195.079 107.899 195.038 107.916C194.997 107.934 194.96 107.959 194.929 107.991L194.211 108.707L193.494 107.991C193.431 107.928 193.345 107.892 193.255 107.892C193.166 107.892 193.08 107.928 193.017 107.991C192.954 108.054 192.918 108.14 192.918 108.23C192.918 108.319 192.953 108.405 193.016 108.468L193.733 109.185L193.016 109.902C192.985 109.933 192.959 109.97 192.942 110.011C192.925 110.052 192.916 110.096 192.916 110.141C192.916 110.185 192.924 110.23 192.941 110.271C192.958 110.312 192.983 110.349 193.015 110.381C193.046 110.412 193.084 110.437 193.125 110.454C193.166 110.471 193.21 110.48 193.255 110.48C193.299 110.48 193.344 110.471 193.385 110.453C193.426 110.436 193.463 110.411 193.494 110.379L194.211 109.663L194.929 110.379C194.96 110.411 194.997 110.436 195.038 110.453C195.079 110.47 195.123 110.479 195.168 110.479C195.212 110.479 195.256 110.47 195.297 110.453C195.339 110.436 195.376 110.411 195.407 110.38C195.439 110.349 195.464 110.311 195.481 110.27C195.498 110.229 195.506 110.185 195.506 110.141C195.506 110.096 195.497 110.052 195.48 110.011C195.463 109.97 195.438 109.933 195.407 109.902Z" fill="white"/>
<path d="M105.456 153.934C104.778 153.934 104.116 153.733 103.552 153.357C102.989 152.981 102.549 152.446 102.29 151.82C102.031 151.194 101.963 150.506 102.095 149.841C102.227 149.177 102.554 148.567 103.033 148.088C103.512 147.609 104.123 147.283 104.787 147.151C105.452 147.018 106.141 147.086 106.767 147.345C107.394 147.605 107.929 148.044 108.305 148.607C108.682 149.17 108.883 149.832 108.883 150.509C108.883 151.418 108.522 152.289 107.879 152.931C107.237 153.573 106.365 153.934 105.456 153.934Z" fill="#E6E6E6"/>
<path d="M106.651 151.226L105.934 150.509L106.651 149.793C106.714 149.729 106.749 149.644 106.749 149.554C106.749 149.465 106.713 149.38 106.65 149.317C106.587 149.253 106.501 149.218 106.412 149.218C106.322 149.217 106.237 149.252 106.173 149.315L105.456 150.032L104.739 149.315C104.676 149.252 104.59 149.217 104.5 149.217C104.411 149.217 104.325 149.252 104.262 149.316C104.198 149.379 104.163 149.465 104.163 149.554C104.162 149.644 104.198 149.729 104.261 149.793L104.978 150.509L104.261 151.226C104.229 151.257 104.204 151.295 104.187 151.336C104.17 151.377 104.161 151.421 104.16 151.465C104.16 151.51 104.169 151.554 104.186 151.595C104.203 151.636 104.228 151.674 104.259 151.705C104.291 151.737 104.328 151.762 104.37 151.779C104.411 151.796 104.455 151.804 104.5 151.804C104.544 151.804 104.588 151.795 104.629 151.778C104.67 151.761 104.708 151.735 104.739 151.704L105.456 150.987L106.173 151.704C106.237 151.767 106.322 151.802 106.412 151.802C106.501 151.802 106.587 151.766 106.651 151.703C106.714 151.64 106.749 151.554 106.75 151.465C106.75 151.375 106.714 151.289 106.651 151.226Z" fill="white"/>
<path d="M144.228 51.9076C147.57 51.9076 150.279 49.2001 150.279 45.8601C150.279 42.5202 147.57 39.8126 144.228 39.8126C140.885 39.8126 138.176 42.5202 138.176 45.8601C138.176 49.2001 140.885 51.9076 144.228 51.9076Z" fill="#A0616A"/>
<path opacity="0.5" d="M191.923 44.2472H144.944C137.495 44.2472 131.457 50.2814 131.457 57.7251V74.6984C131.457 82.142 137.495 88.1763 144.944 88.1763H191.923C199.372 88.1763 205.41 82.142 205.41 74.6984V57.7251C205.41 50.2814 199.372 44.2472 191.923 44.2472Z" fill="#C4AAE8"/>
<path d="M191.923 88.6803H144.944C141.234 88.6761 137.678 87.2017 135.055 84.5805C132.432 81.9593 130.957 78.4054 130.952 74.6984V57.725C130.957 54.0181 132.432 50.4642 135.055 47.843C137.678 45.2218 141.234 43.7474 144.944 43.7432H191.923C195.633 43.7474 199.189 45.2218 201.812 47.843C204.435 50.4642 205.91 54.0181 205.915 57.725V74.6984C205.91 78.4054 204.435 81.9593 201.812 84.5805C199.189 87.2017 195.633 88.6761 191.923 88.6803ZM144.944 44.7511C141.502 44.755 138.202 46.1231 135.768 48.5554C133.334 50.9876 131.965 54.2853 131.961 57.725V74.6984C131.965 78.1381 133.334 81.4359 135.768 83.8681C138.202 86.3003 141.502 87.6685 144.944 87.6724H191.923C195.365 87.6685 198.665 86.3003 201.099 83.8681C203.533 81.4359 204.902 78.1381 204.906 74.6984V57.725C204.902 54.2853 203.533 50.9876 201.099 48.5554C198.665 46.1231 195.365 44.755 191.923 44.7511H144.944Z" fill="#8F5BD7"/>
<path d="M182.47 67.4728C182.501 70.2935 183.399 76.1662 182.755 78.9291L182.651 78.6979C182.116 79.1219 181.547 79.5021 180.951 79.8346C180.52 78.7887 179.877 77.8438 179.061 77.0601C179.169 78.3568 179.015 79.6617 178.61 80.8982C176.2 81.7652 171.97 79.0331 169.348 78.9753C165.129 78.879 161.019 77.8308 156.989 76.721C155.559 76.328 153.986 75.8155 153.338 74.6286C152.69 73.4418 153.849 72.1607 153.774 70.8215C153.233 61.282 157.78 59.683 162.106 57.1341C163.058 56.5731 163.525 55.3654 164.601 54.8952C166.093 54.244 167.871 54.5561 169.494 54.8837C169.091 54.7509 168.729 54.5167 168.443 54.2036C168.156 53.8904 167.956 53.5089 167.86 53.0957C167.792 52.6907 167.837 52.2749 167.991 51.8941C168.145 51.5133 168.401 51.1824 168.731 50.9378C169.223 50.6159 169.78 50.4059 170.362 50.3227C170.945 50.2395 171.538 50.285 172.101 50.4561C173.204 50.8007 174.247 51.3128 175.194 51.9744C175.837 52.3268 176.411 52.7914 176.89 53.3462C177.116 53.6087 177.256 53.9339 177.292 54.2782C177.328 54.6225 177.258 54.9695 177.091 55.2729C176.885 55.5329 176.623 55.7432 176.325 55.888C176.026 56.0327 175.699 56.1083 175.367 56.1091C174.856 56.124 174.345 56.0708 173.848 55.9511C176.127 56.5129 178.181 57.7548 179.736 59.5117C181.668 61.7582 182.435 64.6521 182.47 67.4728Z" fill="#2F2E41"/>
<path d="M167.337 76.6571C172.501 76.6571 176.686 72.4744 176.686 67.3148C176.686 62.1552 172.501 57.9725 167.337 57.9725C162.174 57.9725 157.989 62.1552 157.989 67.3148C157.989 72.4744 162.174 76.6571 167.337 76.6571Z" fill="#FFB6B6"/>
<path d="M177.538 65.9045C176.439 67.2339 174.804 67.1645 173.35 66.9526C172.892 66.8871 172.433 66.8139 171.974 66.7291C171.893 66.4709 171.8 66.2127 171.696 65.9623C171.266 64.9164 170.623 63.9715 169.807 63.1878C169.893 64.2124 169.813 65.2442 169.572 66.2436C168.719 66.047 167.871 65.8274 167.027 65.5847C166.279 65.4633 165.608 65.0596 165.15 64.4572C164.692 63.8548 164.483 63.0996 164.567 62.3478C163.352 63.2726 162.029 64.0741 160.641 64.0895C159.859 64.0692 159.103 63.799 158.486 63.3184C157.868 62.8378 157.421 62.1722 157.209 61.4191C156.887 60.1994 156.83 58.9247 157.043 57.6813C157.229 56.1977 157.645 54.5677 158.648 53.9704C159.453 53.4849 160.383 53.8317 161.212 54.2247C163.038 55.1007 164.77 56.1621 166.379 57.3923L166.398 57.7969C166.815 55.8047 168.191 54.2671 169.691 54.113C170.701 54.0128 171.688 54.4791 172.641 54.9492C173.886 55.498 175.043 56.2263 176.077 57.1109C177.244 58.1721 178.055 59.5677 178.398 61.107C178.757 62.7755 178.487 64.7562 177.538 65.9045Z" fill="#2F2E41"/>
<path d="M168.284 52.9392C168.38 52.9473 168.144 52.8933 168.221 52.9254C168.183 52.9083 168.147 52.8881 168.113 52.8651C168.107 52.8614 168.031 52.8 168.081 52.8427C167.967 52.7538 167.88 52.6336 167.833 52.4968C167.727 52.1644 167.677 51.8164 167.687 51.4675C167.706 51.009 167.627 50.5516 167.457 50.1255C167.407 50.0101 167.33 49.9082 167.232 49.8281C167.135 49.748 167.02 49.692 166.897 49.6646C166.774 49.6372 166.646 49.6391 166.524 49.6703C166.402 49.7015 166.289 49.761 166.194 49.844C165.928 50.2029 165.799 50.6454 165.831 51.0911C165.807 51.5224 165.853 51.9548 165.967 52.3716C166.163 53.0569 166.553 53.6705 167.092 54.1376C167.714 54.682 168.495 55.0114 169.319 55.0772C169.432 55.0746 169.542 55.0392 169.636 54.9753C169.729 54.9114 169.802 54.8216 169.845 54.7171C169.889 54.6125 169.901 54.4976 169.88 54.3863C169.859 54.275 169.806 54.1722 169.728 54.0904L168.693 53.1085C168.584 53.0012 168.438 52.9413 168.285 52.9418C168.132 52.9423 167.986 53.0031 167.878 53.1111C167.77 53.219 167.709 53.3653 167.708 53.518C167.708 53.6706 167.768 53.8173 167.875 53.9259L168.91 54.9078L169.319 53.9211C169.148 53.9057 168.98 53.8713 168.816 53.8185C168.64 53.7694 168.471 53.6953 168.314 53.5986C168.162 53.5149 168.018 53.4148 167.887 53.3C167.803 53.2263 167.723 53.1483 167.647 53.0665C167.619 53.0367 167.592 53.0065 167.566 52.9757C167.568 52.9779 167.457 52.8389 167.504 52.9025C167.385 52.7389 167.281 52.5646 167.193 52.3817C167.163 52.317 167.137 52.2498 167.117 52.1809C167.081 52.0676 167.051 51.9522 167.028 51.8353C166.984 51.5898 166.97 51.3398 166.988 51.091C166.993 50.9855 167.004 50.8803 167.02 50.7759C167.034 50.7209 167.045 50.6649 167.052 50.6084C167.054 50.468 167.033 50.6833 166.96 50.716L166.668 50.7949C166.62 50.791 166.574 50.7765 166.533 50.7524C166.492 50.7284 166.457 50.6953 166.43 50.6558C166.418 50.6075 166.421 50.6161 166.44 50.6814C166.462 50.7582 166.479 50.8362 166.491 50.9151C166.513 51.0984 166.526 51.2828 166.53 51.4674C166.534 51.8586 166.579 52.2483 166.666 52.6299C166.747 53.0133 166.947 53.3614 167.237 53.6245C167.528 53.8876 167.894 54.0524 168.284 54.0952C168.437 54.094 168.583 54.0327 168.692 53.9246C168.8 53.8164 168.861 53.6701 168.862 53.5172C168.859 53.3648 168.797 53.2196 168.69 53.1119C168.582 53.0041 168.436 52.9423 168.284 52.9392Z" fill="#2F2E41"/>
<path d="M145.295 55.3225C147.212 55.3225 148.766 53.7695 148.766 51.8538C148.766 49.938 147.212 48.385 145.295 48.385C143.378 48.385 141.824 49.938 141.824 51.8538C141.824 53.7695 143.378 55.3225 145.295 55.3225Z" fill="#8F5BD7"/>
<path d="M144.821 53.6592C144.761 53.6592 144.702 53.6452 144.649 53.6184C144.595 53.5916 144.549 53.5527 144.513 53.5048L143.566 52.243C143.535 52.2025 143.512 52.1563 143.499 52.1071C143.486 52.0579 143.483 52.0066 143.491 51.9562C143.498 51.9058 143.515 51.8573 143.54 51.8134C143.566 51.7696 143.601 51.7313 143.641 51.7008C143.682 51.6703 143.728 51.6481 143.778 51.6355C143.827 51.623 143.878 51.6203 143.929 51.6277C143.979 51.6351 144.028 51.6523 144.071 51.6784C144.115 51.7046 144.153 51.7391 144.183 51.78L144.803 52.6055L146.394 50.2203C146.451 50.1351 146.539 50.076 146.64 50.056C146.74 50.0359 146.844 50.0565 146.93 50.1133C147.015 50.17 147.074 50.2583 147.094 50.3586C147.114 50.459 147.093 50.5632 147.037 50.6484L145.143 53.4874C145.108 53.5387 145.062 53.5811 145.008 53.611C144.954 53.6408 144.894 53.6573 144.832 53.6591L144.821 53.6592Z" fill="white"/>
<path d="M192.698 55.6624C192.021 55.6624 191.358 55.4615 190.795 55.0852C190.231 54.7089 189.792 54.174 189.532 53.5483C189.273 52.9225 189.205 52.2339 189.337 51.5696C189.47 50.9052 189.796 50.295 190.275 49.8161C190.754 49.3371 191.365 49.0109 192.03 48.8788C192.695 48.7467 193.384 48.8145 194.01 49.0737C194.636 49.3329 195.171 49.7718 195.548 50.335C195.924 50.8982 196.125 51.5604 196.125 52.2377C196.125 53.146 195.764 54.0171 195.122 54.6593C194.479 55.3016 193.607 55.6624 192.698 55.6624Z" fill="#E6E6E6"/>
<path d="M193.894 52.9543L193.177 52.2377L193.894 51.5211C193.925 51.4898 193.951 51.4525 193.968 51.4114C193.985 51.3704 193.994 51.3263 193.994 51.2817C193.994 51.2372 193.986 51.1931 193.969 51.1519C193.952 51.1107 193.927 51.0733 193.895 51.0418C193.864 51.0103 193.826 50.9854 193.785 50.9684C193.744 50.9514 193.7 50.9427 193.655 50.9429C193.61 50.943 193.566 50.952 193.525 50.9692C193.484 50.9864 193.447 51.0116 193.416 51.0433L192.698 51.7599L191.981 51.0433C191.918 50.9802 191.832 50.9449 191.743 50.945C191.653 50.9452 191.567 50.9808 191.504 51.044C191.441 51.1072 191.405 51.1929 191.405 51.2824C191.405 51.3718 191.44 51.4576 191.503 51.5211L192.22 52.2377L191.503 52.9543C191.472 52.9856 191.446 53.0229 191.429 53.0639C191.412 53.105 191.403 53.1491 191.403 53.1936C191.403 53.2382 191.411 53.2823 191.428 53.3235C191.445 53.3646 191.47 53.4021 191.502 53.4335C191.533 53.465 191.571 53.49 191.612 53.507C191.653 53.524 191.697 53.5326 191.742 53.5325C191.787 53.5323 191.831 53.5234 191.872 53.5062C191.913 53.4889 191.95 53.4638 191.981 53.4321L192.698 52.7154L193.416 53.4321C193.447 53.4636 193.484 53.4886 193.525 53.5057C193.566 53.5228 193.61 53.5316 193.655 53.5317C193.699 53.5318 193.743 53.5231 193.784 53.5061C193.826 53.4891 193.863 53.4642 193.894 53.4327C193.926 53.4013 193.951 53.364 193.968 53.3229C193.985 53.2819 193.993 53.2378 193.993 53.1934C193.993 53.149 193.984 53.105 193.967 53.0639C193.95 53.0229 193.925 52.9857 193.894 52.9543Z" fill="white"/>
<path d="M216.021 23.0261H13.4318C13.298 23.0261 13.1698 22.973 13.0752 22.8785C12.9806 22.784 12.9275 22.6558 12.9275 22.5221C12.9275 22.3885 12.9806 22.2603 13.0752 22.1658C13.1698 22.0713 13.298 22.0182 13.4318 22.0182H216.021C216.155 22.0182 216.283 22.0713 216.378 22.1658C216.472 22.2603 216.525 22.3885 216.525 22.5221C216.525 22.6558 216.472 22.784 216.378 22.8785C216.283 22.973 216.155 23.0261 216.021 23.0261Z" fill="white"/>
<path d="M36.1347 14.9627C38.287 14.9627 40.0318 13.1802 40.0318 10.9813C40.0318 8.78251 38.287 7 36.1347 7C33.9824 7 32.2375 8.78251 32.2375 10.9813C32.2375 13.1802 33.9824 14.9627 36.1347 14.9627Z" fill="white"/>
<path d="M49.5976 15.1187C51.7499 15.1187 53.4947 13.3362 53.4947 11.1374C53.4947 8.93852 51.7499 7.15601 49.5976 7.15601C47.4452 7.15601 45.7004 8.93852 45.7004 11.1374C45.7004 13.3362 47.4452 15.1187 49.5976 15.1187Z" fill="white"/>
<path d="M63.0605 15.1187C65.2128 15.1187 66.9576 13.3362 66.9576 11.1374C66.9576 8.93852 65.2128 7.15601 63.0605 7.15601C60.9081 7.15601 59.1633 8.93852 59.1633 11.1374C59.1633 13.3362 60.9081 15.1187 63.0605 15.1187Z" fill="white"/>
<path d="M78.4118 14.2842C78.3504 14.2842 78.2896 14.272 78.233 14.2482C78.1764 14.2244 78.1252 14.1896 78.0823 14.1456L75.4527 11.4594C75.3685 11.3733 75.3213 11.2577 75.3213 11.1373C75.3213 11.0169 75.3685 10.9013 75.4527 10.8153L78.0823 8.12923C78.1247 8.086 78.1751 8.05151 78.2307 8.02775C78.2864 8.004 78.3461 7.99142 78.4067 7.99075C78.4672 7.99008 78.5272 8.00134 78.5834 8.02386C78.6396 8.04639 78.6907 8.07974 78.734 8.12203C78.7773 8.16432 78.8118 8.21471 78.8355 8.27032C78.8593 8.32593 78.8719 8.38568 78.8725 8.44616C78.8732 8.50663 78.862 8.56663 78.8394 8.62276C78.8169 8.67888 78.7835 8.73002 78.7412 8.77325L76.4269 11.1373L78.7412 13.5016C78.8046 13.5664 78.8475 13.6485 78.8644 13.7375C78.8814 13.8266 78.8717 13.9186 78.8365 14.0022C78.8014 14.0857 78.7423 14.1571 78.6667 14.2072C78.5912 14.2574 78.5025 14.2842 78.4118 14.2842Z" fill="white"/>
<path d="M82.8304 14.2841C82.7397 14.2841 82.651 14.2574 82.5755 14.2072C82.4999 14.1571 82.4409 14.0857 82.4057 14.0022C82.3705 13.9186 82.3608 13.8266 82.3778 13.7375C82.3947 13.6485 82.4376 13.5664 82.501 13.5016L84.8151 11.1373L82.501 8.77325C82.4156 8.68594 82.3683 8.56828 82.3697 8.44616C82.371 8.32403 82.4209 8.20743 82.5082 8.12203C82.5956 8.03663 82.7133 7.9894 82.8355 7.99075C82.9577 7.9921 83.0744 8.04192 83.1599 8.12923L85.7892 10.8153C85.8735 10.9013 85.9207 11.0169 85.9207 11.1373C85.9207 11.2577 85.8735 11.3733 85.7892 11.4594L83.1599 14.1456C83.117 14.1896 83.0658 14.2244 83.0092 14.2482C82.9526 14.272 82.8918 14.2842 82.8304 14.2841Z" fill="white"/>
<path d="M184.911 7.61694H180.021C179.889 7.6169 179.757 7.64297 179.635 7.69364C179.512 7.74431 179.401 7.8186 179.307 7.91226C179.214 8.00592 179.139 8.11713 179.089 8.23951C179.038 8.36189 179.012 8.49306 179.012 8.62552V13.5164C179.012 13.6488 179.038 13.78 179.089 13.9024C179.139 14.0248 179.214 14.136 179.307 14.2296C179.401 14.3233 179.512 14.3976 179.635 14.4483C179.757 14.4989 179.889 14.525 180.021 14.525H184.911C185.179 14.5252 185.436 14.4192 185.626 14.2301C185.816 14.041 185.924 13.7844 185.925 13.5164V8.62552C185.924 8.35753 185.816 8.10085 185.626 7.91179C185.436 7.72272 185.179 7.61668 184.911 7.61694Z" fill="white"/>
<path d="M172.929 7.61694H168.04C167.907 7.6169 167.776 7.64297 167.653 7.69364C167.531 7.74431 167.42 7.8186 167.326 7.91226C167.232 8.00592 167.158 8.11713 167.107 8.23951C167.056 8.36189 167.03 8.49306 167.03 8.62552V13.5164C167.03 13.6488 167.056 13.78 167.107 13.9024C167.158 14.0248 167.232 14.136 167.326 14.2296C167.42 14.3233 167.531 14.3976 167.653 14.4483C167.776 14.4989 167.907 14.525 168.04 14.525H172.929C173.197 14.5252 173.455 14.4192 173.645 14.2301C173.835 14.041 173.942 13.7844 173.943 13.5164V8.62552C173.942 8.35753 173.835 8.10085 173.645 7.91179C173.455 7.72272 173.197 7.61668 172.929 7.61694Z" fill="white"/>
<path d="M196.201 7.84729H191.312C191.179 7.84725 191.048 7.87332 190.925 7.92399C190.803 7.97466 190.692 8.04895 190.598 8.14261C190.504 8.23627 190.43 8.34747 190.379 8.46986C190.329 8.59224 190.302 8.72341 190.302 8.85587V13.7467C190.302 13.8792 190.329 14.0104 190.379 14.1328C190.43 14.2551 190.504 14.3663 190.598 14.46C190.692 14.5537 190.803 14.6279 190.925 14.6786C191.048 14.7293 191.179 14.7553 191.312 14.7553H196.201C196.469 14.7556 196.727 14.6495 196.917 14.4605C197.107 14.2714 197.214 14.0147 197.215 13.7467V8.85587C197.214 8.58788 197.107 8.3312 196.917 8.14213C196.727 7.95306 196.469 7.84703 196.201 7.84729Z" fill="white"/>
<path d="M142.78 9.70779H103.696C103.534 9.70675 103.373 9.73778 103.223 9.79911C103.073 9.86044 102.936 9.95085 102.821 10.0651C102.706 10.1794 102.615 10.3153 102.552 10.465C102.49 10.6147 102.458 10.7753 102.458 10.9374C102.458 11.0996 102.49 11.2601 102.552 11.4098C102.615 11.5595 102.706 11.6954 102.821 11.8097C102.936 11.924 103.073 12.0144 103.223 12.0757C103.373 12.137 103.534 12.1681 103.696 12.167H142.78C143.105 12.165 143.416 12.0345 143.645 11.8041C143.874 11.5738 144.003 11.2622 144.003 10.9374C144.003 10.6127 143.874 10.3011 143.645 10.0707C143.416 9.84033 143.105 9.70987 142.78 9.70779Z" fill="white"/>
</g>
<defs>
<clipPath id="clip0_1793_44554">
<rect width="235" height="191" fill="white"/>
</clipPath>
</defs>
</svg>
