<svg width="32" height="30" viewBox="0 0 32 30" fill="none" xmlns="http://www.w3.org/2000/svg">
<path d="M15.2983 10.3059L1.42617 18.6429C0.779668 19.0314 0.779667 19.9686 1.42617 20.3571L15.2983 28.6941C15.612 28.8827 16.0037 28.8847 16.3194 28.6995L30.5298 20.3625C31.1885 19.9761 31.1885 19.0239 30.5298 18.6375L16.3194 10.3005C16.0037 10.1153 15.612 10.1173 15.2983 10.3059Z" fill="white" stroke="black"/>
<path d="M15.2983 5.30588L1.42617 13.6429C0.779668 14.0314 0.779667 14.9686 1.42617 15.3571L15.2983 23.6941C15.612 23.8827 16.0037 23.8847 16.3194 23.6995L30.5298 15.3625C31.1885 14.9761 31.1885 14.0239 30.5298 13.6375L16.3194 5.30048C16.0037 5.11526 15.612 5.11733 15.2983 5.30588Z" fill="white" stroke="black"/>
<path d="M15.2983 1.30588L1.42617 9.64288C0.779668 10.0314 0.779667 10.9686 1.42617 11.3571L15.2983 19.6941C15.612 19.8827 16.0037 19.8847 16.3194 19.6995L30.5298 11.3625C31.1885 10.9761 31.1885 10.0239 30.5298 9.63748L16.3194 1.30048C16.0037 1.11526 15.612 1.11733 15.2983 1.30588Z" fill="white" stroke="black"/>
</svg>
