<svg width="152" height="467" viewBox="0 0 152 467" fill="none" xmlns="http://www.w3.org/2000/svg">
<path d="M63.7605 17.6584C63.7605 17.6584 65.4751 19.6234 62.5372 23.4255C59.5992 27.2275 61.9716 35.4776 67.5532 35.6878C73.1348 35.8979 75.8416 38.2357 74.4959 41.3152C73.1503 44.3946 71.5332 51.7119 77.6118 50.5993C83.6904 49.4867 85.6116 51.9067 84.5354 53.7666C83.4593 55.6265 87.2459 50.0678 87.2459 50.0678C87.2459 50.0678 90.6332 55.1141 94.7907 51.5816C98.9482 48.049 100.601 16.0273 92.1254 15.4845C83.6498 14.9418 63.7605 17.6584 63.7605 17.6584Z" fill="#2F2E41"/>
<path d="M106.727 169.94L108.658 183.459H117.35L114.453 168.008L106.727 169.94Z" fill="#9F616A"/>
<path d="M118.313 175.251C118.313 175.251 129.902 185.874 127.005 186.839C124.107 187.805 113.484 199.394 111.553 200.36C109.825 201.223 91.2726 207.12 94.1698 200.36C97.067 193.6 103.827 189.737 103.827 189.737L105.759 178.148L118.313 175.251Z" fill="#F2F2F2"/>
<path opacity="0.1" d="M118.313 175.251C118.313 175.251 129.902 185.874 127.005 186.839C124.107 187.805 113.484 199.394 111.553 200.36C109.825 201.223 91.2726 207.12 94.1698 200.36C97.067 193.6 103.827 189.737 103.827 189.737L105.759 178.148L118.313 175.251Z" fill="black"/>
<path d="M118.316 159.8L120.248 173.321H128.939L126.042 157.869L118.316 159.8Z" fill="#9F616A"/>
<path d="M82 123.909L94.6571 82.0575C94.6571 82.0575 73.4111 62.7429 87.8971 56.9486C102.383 51.1542 106.246 80.126 106.246 80.126L101.417 130.344H82.1027L82 123.909Z" fill="#FFB8B8"/>
<path d="M111.555 93.1631C111.555 93.1631 86.5954 125.176 90.3836 129.933C94.1718 134.689 100.932 163.661 100.932 163.661C100.932 163.661 99.9661 175.25 103.829 175.25C107.692 175.25 117.349 173.318 117.349 170.421C117.349 167.524 108.658 130.826 108.658 130.826L133.767 97.9918L111.555 93.1631Z" fill="#E54D99"/>
<path d="M113.491 95.0947L138.6 81.5745C138.6 81.5745 155.983 90.266 151.154 97.9918C146.326 105.718 124.114 125.998 124.114 125.998C124.114 125.998 130.874 158.833 129.908 159.798C128.942 160.764 118.319 164.627 115.422 163.661C112.525 162.696 97.0735 125.032 100.936 123.101C104.799 121.169 117.354 100.889 117.354 100.889L113.491 95.0947Z" fill="#E54D99"/>
<path d="M44.9199 449.519C44.9199 449.519 62.303 460.142 64.2344 460.142C66.1659 460.142 92.2405 466.902 80.6518 471.73C69.0631 476.559 24.6396 469.799 25.6053 466.902C26.5711 464.004 25.6053 446.621 27.5368 446.621C29.4682 446.621 44.9199 449.519 44.9199 449.519Z" fill="#2F2E41"/>
<path d="M64.2324 463.037C64.2324 463.037 81.6155 473.66 83.547 473.66C85.4784 473.66 111.553 480.42 99.9643 485.248C88.3756 490.077 43.9521 483.317 44.9178 480.42C45.8836 477.523 44.9179 460.139 46.8493 460.139C48.7808 460.139 64.2324 463.037 64.2324 463.037Z" fill="#2F2E41"/>
<path d="M45.8859 258.303C45.8859 258.303 48.783 272.789 53.6117 283.412C58.4403 294.035 52.646 344.253 49.7488 351.979C46.8516 359.704 18.8455 451.449 27.537 452.414C36.2286 453.38 53.6117 452.414 53.6117 452.414L81.6177 364.533L76.7891 246.714L45.8859 258.303Z" fill="#451E7B"/>
<path opacity="0.1" d="M45.8859 258.303C45.8859 258.303 48.783 272.789 53.6117 283.412C58.4403 294.035 52.646 344.253 49.7488 351.979C46.8516 359.704 18.8455 451.449 27.537 452.414C36.2286 453.38 53.6117 452.414 53.6117 452.414L81.6177 364.533L76.7891 246.714L45.8859 258.303Z" fill="black"/>
<path d="M51.6784 259.27C51.6784 259.27 55.5414 285.344 64.2329 291.139C72.9245 296.933 70.0273 302.727 70.0273 302.727L66.1644 353.911C66.1644 353.911 28.501 446.621 40.0897 458.209C51.6785 469.798 62.3015 464.97 67.1301 464.004C71.9587 463.038 80.6503 442.758 75.8217 436.964C70.993 431.169 85.4789 396.403 89.3419 390.609C93.2048 384.814 89.3418 377.088 94.1705 375.157C98.9991 373.225 109.622 360.671 109.622 351.979C109.622 343.288 123.142 250.578 114.451 244.784C105.759 238.989 50.0471 256.743 50.0471 256.743L51.6784 259.27Z" fill="#451E7B"/>
<path d="M33.332 124.066C45.0658 124.066 54.578 114.554 54.578 102.82C54.578 91.0866 45.0658 81.5745 33.332 81.5745C21.5981 81.5745 12.0859 91.0866 12.0859 102.82C12.0859 114.554 21.5981 124.066 33.332 124.066Z" fill="#FFB8B8"/>
<path d="M81.6175 42.9454C91.2179 42.9454 99.0006 35.1627 99.0006 25.5623C99.0006 15.9619 91.2179 8.1792 81.6175 8.1792C72.0171 8.1792 64.2344 15.9619 64.2344 25.5623C64.2344 35.1627 72.0171 42.9454 81.6175 42.9454Z" fill="#9F616A"/>
<path d="M47.8196 102.822C47.8196 102.822 59.4084 124.068 65.2028 124.068C70.9971 124.068 42.0253 146.28 42.0253 146.28C42.0253 146.28 32.368 118.274 30.4366 117.308C28.5051 116.342 47.8196 102.822 47.8196 102.822Z" fill="#FFB8B8"/>
<path d="M51.6802 122.135C51.6802 122.135 26.5713 130.827 27.5371 133.724C28.5028 136.621 20.777 143.381 20.777 146.278C20.777 149.176 18.8455 175.25 30.4342 196.496C42.023 217.742 60.3718 233.194 51.6802 242.851C42.9887 252.508 29.4685 268.926 43.9544 268.926C58.4403 268.926 81.6178 247.68 102.864 255.406C124.11 263.131 119.281 234.16 119.281 234.16C119.281 234.16 122.178 211.948 116.384 205.188C110.59 198.428 90.3094 150.141 90.3094 144.347C90.3094 138.553 70.9949 116.341 66.1662 116.341C61.3375 116.341 51.6802 122.135 51.6802 122.135Z" fill="#C7ADEB"/>
<path d="M86.4453 36.187C86.4453 36.187 94.3093 51.1387 94.7231 53.803C95.1369 56.4672 108.657 36.187 108.657 36.187L93.2054 25.564L86.4453 36.187Z" fill="#9F616A"/>
<path d="M89.3453 47.7745L105.763 30.3914L125.077 39.0829C125.077 39.0829 143.091 78.6777 144.224 81.5749C145.357 84.4721 115.42 97.9923 112.523 97.9923C109.626 97.9923 89.3453 68.0547 89.3453 68.0547C89.3453 68.0547 84.5166 53.5688 89.3453 47.7745Z" fill="#F2F2F2"/>
<path d="M81.6211 70.9524V88.3351H93.2101L89.3982 70.9524H81.6211Z" fill="#9F616A"/>
<path d="M88.2306 83.9897C86.7662 83.9699 85.3305 84.3969 84.115 85.214C82.8995 86.031 81.962 87.1992 81.4274 88.5627C80.6725 90.6044 80.9287 92.7502 84.5157 93.647C92.2415 95.5784 93.2073 93.647 93.2073 93.647C93.2073 93.647 106.619 91.7155 103.776 87.8526C100.933 83.9897 93.2073 83.9897 93.2073 83.9897H88.2306Z" fill="#9F616A"/>
<path d="M129.903 167.524C129.903 167.524 141.492 178.147 138.594 179.113C135.697 180.078 125.074 191.667 123.143 192.633C121.415 193.497 102.862 199.393 105.76 192.633C108.657 185.873 115.417 182.01 115.417 182.01L117.348 170.421L129.903 167.524Z" fill="#F2F2F2"/>
<path d="M25.7624 86.4665C27.0917 85.6876 28.6616 84.7175 28.6995 83.1774C28.6649 82.6115 28.4658 82.068 28.1266 81.6137C27.7875 81.1593 27.3231 80.8139 26.7904 80.6197C25.7188 80.25 24.5843 80.0972 23.4531 80.17C23.019 80.1479 22.5841 80.191 22.1629 80.2979C21.0628 80.6372 20.4291 81.7541 19.5627 82.5121C18.3045 83.6127 16.5716 83.9364 14.9535 84.3558C12.2425 85.0593 9.64262 86.1367 7.22875 87.5572C6.75205 87.7982 6.33454 88.1416 6.00615 88.5629C5.62636 89.3388 5.45699 90.2008 5.51496 91.0627C5.29696 94.3393 3.33247 97.1914 1.86594 100.13C0.399408 103.068 -0.564065 106.728 1.15726 109.524C1.84041 110.395 2.47796 111.3 3.06733 112.236C4.28723 114.778 2.76468 117.908 3.64607 120.586C4.04052 121.64 4.67332 122.589 5.49509 123.358C7.19102 125.066 9.2806 126.332 11.5801 127.043C13.7747 127.718 16.4975 128.169 17.357 130.298C17.7257 131.212 17.6505 132.288 18.1707 133.124C18.8151 134.16 20.1436 134.495 21.3436 134.716C22.6907 135.024 24.0769 135.125 25.4542 135.014C26.143 134.954 26.8126 134.755 27.4221 134.429C28.0317 134.103 28.5685 133.656 29.0001 133.116C29.3894 132.353 29.8716 131.642 30.4357 130.998C31.8341 129.83 33.958 130.753 35.7539 130.443C36.4816 130.306 37.1548 129.964 37.6948 129.457C38.2347 128.95 38.6187 128.3 38.8017 127.582C38.851 126.818 39.0619 126.073 39.4204 125.396C40.5357 123.969 43.4701 124.976 44.2065 123.322C44.685 122.246 43.684 121.11 42.7161 120.441C41.1379 119.349 39.3736 118.509 37.9581 117.214C36.5426 115.918 35.4953 113.979 35.9385 112.112C36.6031 109.312 40.259 107.77 40.3801 104.895C40.4495 103.247 39.2658 101.802 37.9406 100.821C36.6155 99.8401 35.08 99.1354 33.8954 97.9887C33.0296 97.1505 32.3766 96.0986 31.4354 95.3461C29.7332 93.9851 27.4041 93.8201 25.2361 93.5975C24.0732 93.4782 19.4347 92.941 19.6172 91.1697C19.7687 89.6985 24.5821 87.1581 25.7624 86.4665Z" fill="#2F2E41"/>
<path d="M89.3433 46.8096C89.3433 46.8096 78.7203 50.6725 78.7203 55.5011C78.7203 60.3297 73.8916 75.7814 78.7203 75.7814C83.5489 75.7814 93.2062 72.0744 93.2062 72.0744L89.3433 46.8096Z" fill="#F2F2F2"/>
<path d="M86.4468 116.342C86.4468 116.342 114.453 106.685 115.419 106.685C116.384 106.685 129.905 98.9587 128.939 96.0615L125.076 71.9183C125.076 71.9183 109.624 40.0493 120.247 40.0493C130.87 40.0493 136.665 65.1582 136.665 65.1582C136.665 65.1582 159.842 108.616 147.288 118.273C134.733 127.931 82.5839 145.314 79.6867 142.416C76.7895 139.519 86.4468 116.342 86.4468 116.342Z" fill="#FFB8B8"/>
<path d="M113.483 53.5699L120.001 59.8517L111.551 68.0558C111.551 68.0558 99.9625 63.2271 100.928 66.1243C101.894 69.0215 107.688 77.7131 111.551 77.7131C115.414 77.7131 135.519 65.1586 135.607 61.2957C135.694 57.4328 123.14 43.9126 120.243 42.9468C117.346 41.9811 113.483 53.5699 113.483 53.5699Z" fill="#9F616A"/>
<path d="M101.23 46.8374C101.23 46.8374 115.419 59.3634 117.351 59.3634C119.282 59.3634 122.795 40.5435 122.795 40.5435C122.795 40.5435 111.347 33.0842 107.106 35.1179C102.865 37.1516 101.23 46.8374 101.23 46.8374Z" fill="#F2F2F2"/>
<path d="M51.6797 127.93C51.6797 127.93 51.6797 114.41 80.6515 114.41H93.206L87.4117 146.279L68.0971 152.073L51.6797 127.93Z" fill="#C7ADEB"/>
<path d="M114.965 18.5182C112.125 18.5045 109.289 18.3296 106.47 17.9943C104.255 12.6432 101.435 8.15321 98.3843 6.4792C96.2191 4.54178 92.8796 3.13381 90.2593 2.0206C83.8246 -0.713058 73.113 0.991992 72.4868 4.10097C59.8251 10.151 63.0247 20.776 63.0247 20.776C64.992 24.9347 69.4058 23.0916 73.1502 21.2083C74.1064 24.2229 76.3649 26.7813 79.5984 26.903C85.7817 27.1359 88.7803 29.7256 87.2896 33.1371C85.7988 36.5486 84.0075 44.6547 90.7414 43.4221C97.4752 42.1895 99.6035 44.8704 98.4113 46.9308C97.2191 48.9912 101.414 42.8332 101.414 42.8332C101.414 42.8332 105.166 48.4236 109.772 44.5102C110.238 44.0616 110.57 43.4926 110.732 42.8665C112.873 43.7883 114.57 44.1382 115.533 43.7072C121.05 41.2389 117.624 35.4429 117.624 35.4429C117.624 35.4429 124.988 34.3131 122.615 34.5004C120.242 34.6877 118.741 31.6116 122.756 26.0672C126.772 20.5228 118.686 18.644 114.965 18.5182Z" fill="#2F2E41"/>
<path d="M77.6044 14.1712L74.8555 13.2563L72.111 21.5032L74.86 22.4181L77.6044 14.1712Z" fill="#E02985"/>
</svg>
