<svg width="206" height="307" viewBox="0 0 206 307" fill="none" xmlns="http://www.w3.org/2000/svg">
<g clip-path="url(#clip0_1801_3377)">
<path d="M135.079 121.801L131.332 82.4896L85.75 87.4815V121.177L135.079 121.801Z" fill="#FFB6B6"/>
<path d="M152.244 281.852V311L151.261 310.554H32.3594L35.7927 289.359L36.3718 285.785L36.8278 282.984L58.4835 282.774L58.504 282.769L67.1488 282.687L69.3472 282.666L71.0639 282.646L97.024 282.395L132.413 282.047L152.244 281.852Z" fill="#2F2E41"/>
<path d="M85.125 111.817L134.454 116.185L168.095 150.147L155.372 231.935L152.25 291.213L34.8594 289.341L48.5965 220.079L42.3524 125.857L85.125 111.817Z" fill="#E6E6E6"/>
<path d="M145.343 307.917L143.37 310.554H92.6075C87.9751 305.961 80.4217 299.703 72.2535 293.307C71.1466 292.432 70.0244 291.561 68.897 290.691C68.5434 290.414 68.1898 290.143 67.8362 289.871L67.8311 289.866C65.9812 288.437 64.1211 287.014 62.2763 285.616C61.0105 284.653 59.7499 283.701 58.5047 282.769C58.4996 282.764 58.4945 282.758 58.4842 282.753C58.0845 282.451 57.6797 282.149 57.28 281.852C49.9419 276.352 43.2596 271.503 39.0064 268.425H39.0013C37.7561 267.529 36.7158 266.786 35.9369 266.223C34.8403 265.435 34.2305 265.004 34.2305 265.004L35.486 264.026C35.4962 264.031 35.4962 264.026 35.4962 264.026L40.6206 260.068L40.6718 260.027L43.9924 257.461L64.3209 241.745L63.4754 240.993L80.3295 246.923L98.9054 257.641L115.242 267.063L120.366 270.023C122.836 271.446 125.096 273.177 127.1 275.164C128.545 276.598 129.862 278.165 131.015 279.845C131.471 280.495 131.896 281.166 132.301 281.852L132.414 282.047L137.671 290.983L144.953 307.564L145.343 307.917Z" fill="#6C63FF"/>
<path d="M119.047 310.557H151.261L145.341 307.917L141.595 306.245C133.677 302.713 124.729 304.729 119.047 310.557Z" fill="#FFB6B6"/>
<path d="M94.8008 107.761C117.906 107.761 136.637 89.0434 136.637 65.954C136.637 42.8646 117.906 24.1469 94.8008 24.1469C71.6954 24.1469 52.9648 42.8646 52.9648 65.954C52.9648 89.0434 71.6954 107.761 94.8008 107.761Z" fill="#FFB6B6"/>
<path d="M51.4035 126.169C51.4035 126.169 32.0466 122.425 23.9292 140.52C15.8117 158.616 10.8164 184.824 10.8164 184.824L54.5256 186.695L51.4035 126.169Z" fill="#E6E6E6"/>
<path d="M102.636 310.554H64.1624L56.4502 303.247L56.4297 303.262L56.5578 303.134L68.8973 290.691L69.6814 289.897L73.2684 286.287L73.3607 286.189L74.8416 287.741L77.0092 290.015L77.122 290.132L88.9696 302.545C93.9146 303.979 98.4394 306.581 102.17 310.119C102.329 310.263 102.483 310.411 102.636 310.554Z" fill="#FFB6B6"/>
<path d="M60.5156 280.846L68.1013 287.825C75.2079 291.859 84.4415 294.026 85.739 294.318L87.5085 294.969C89.3592 297.203 91.7183 298.961 94.3885 300.097C101.028 303.029 107.924 301.983 109.791 297.76C111.657 293.537 107.788 287.738 101.146 284.805C98.5088 283.598 95.6204 283.038 92.7227 283.175L92.3877 283.032L71.8254 273.118" fill="#FFB6B6"/>
<path d="M72.0126 247.846C73.2614 247.846 52.0312 270.934 52.0312 270.934L70.4319 285.239L77.0079 258.454L72.0126 247.846Z" fill="#6C63FF"/>
<path d="M77.3017 290.015L70.7516 283.956L68.4725 281.854L59.3435 273.411L54.4355 268.307L47.4546 261.056L43.9953 257.462L41.66 255.041L39.5432 252.838L40.3987 243.965L42.1658 225.682L44.4324 202.202L46.1995 183.9L46.4118 181.704L38.8814 170.837L10.6972 184.663L3.18967 240.596L1.91583 246.623C0.860741 251.61 2.60898 256.776 6.47674 260.099L32.3624 282.34L35.6843 285.192L40.6172 289.435L56.8271 303.362L77.3017 290.015Z" fill="#E6E6E6"/>
<path d="M33.9234 264.07C51.5111 264.07 65.7687 249.822 65.7687 232.247C65.7687 214.671 51.5111 200.423 33.9234 200.423C16.3357 200.423 2.07812 214.671 2.07812 232.247C2.07812 249.822 16.3357 264.07 33.9234 264.07Z" fill="#FFB6B6"/>
<path d="M47.5854 237.438L48.1237 227.702L43.7528 220.214C43.7528 220.214 42.504 194.631 32.5133 195.879C22.5226 197.127 0.668045 215.223 0.0436276 222.086C-0.58079 228.95 5.57095 258.404 13.7808 258.278C19.7038 258.187 18.3819 272.23 47.591 261.476C50.9054 260.256 38.1331 252.662 40.0063 248.294C41.8796 243.926 47.5854 237.438 47.5854 237.438Z" fill="#2F2E41"/>
<path d="M80.2422 144.176C80.2422 144.176 115.846 109.028 129.927 115.314C144.008 121.6 167.984 151.34 167.984 151.34L133.407 179.32L80.2422 144.176Z" fill="#E6E6E6"/>
<path d="M72.4312 216.499C72.4312 216.499 77.3731 215.54 76.9626 218.3C76.5521 221.061 68.393 232.262 65.8361 230.472C63.2793 228.682 64.6937 222.967 65.6865 221.986C66.6794 221.005 72.4312 216.499 72.4312 216.499Z" fill="#6C63FF"/>
<path d="M76.9734 217.219C72.6139 218.887 67.357 227.71 66.5312 229.791L91.7418 253.212C93.5543 254.456 95.9028 254.481 97.7242 253.275C104.66 248.683 107.659 239.71 108.829 234.77C109.387 232.41 108.267 229.967 106.105 228.828C106.105 228.828 76.9733 217.219 76.9734 217.219Z" fill="#6C63FF"/>
<path d="M68.1135 222.27C69.8619 221.698 70.887 220.036 70.4031 218.558C69.9192 217.08 68.1096 216.344 66.3611 216.916C64.6127 217.487 63.5876 219.149 64.0715 220.628C64.5554 222.106 66.3651 222.841 68.1135 222.27Z" fill="#6C63FF"/>
<path d="M127.489 217.293L104.668 222.501C99.6537 221.349 94.4365 221.413 89.4525 222.689C76.9342 225.711 68.3497 234.61 70.2733 242.569C72.1969 250.527 83.9007 254.529 96.4141 251.507C101.433 250.368 106.105 248.044 110.041 244.729L132.32 240.816L127.487 217.272L127.489 217.293Z" fill="#FFB6B6"/>
<path d="M164.8 149.091L134.441 172.78L162.713 204.689L127.488 217.272L132.322 240.816C135.413 240.355 141.499 239.386 148.96 237.894L162.889 234.796C177.07 231.296 192.485 226.313 201.634 219.767C221.948 205.232 164.8 149.091 164.8 149.091Z" fill="#E6E6E6"/>
<path d="M78.1906 12.4874C86.4646 9.58141 91.7077 -0.141905 98.8441 0.00157123C114.345 0.313688 128.964 11.3781 130.775 13.0058C138.316 19.7827 141.197 27.2571 144.515 35.8675C148.03 44.9853 147.123 59.2108 145.831 69.1573C143.941 83.7011 134.513 87.6354 136.783 96.8529C138.373 103.305 143.956 105.293 150.613 110.818C163.205 121.269 167.903 134.633 172.698 148.274C184.123 180.778 177.059 215.68 172.696 216.031C171.774 216.105 170.732 214.013 168.649 209.83C162.269 197.016 164.18 192.652 160.647 188.532C154.327 181.163 143.612 189.759 130.018 183.157C119.309 177.957 114.621 167.116 111.89 160.799C110.32 157.168 103.699 141.855 108.96 125.59C113.832 110.526 123.238 108.799 128.227 91.1576C129.279 87.4384 133.033 77.6725 127.18 71.2955C124.214 68.0635 127.019 87.9932 122.809 85.162C112.573 78.2776 112.987 45.3444 103.279 37.3803C98.6339 33.5695 92.1561 32.6195 87.2904 33.6594C75.74 36.1286 56.2876 49.8636 55.8962 62.5852C55.2662 83.0591 62.9509 91.0791 80.9574 104.364C82.9031 105.799 76.1529 105.684 73.2778 105.244C58.6377 103.006 50.9892 85.2966 49.4124 81.3218C44.7919 69.6743 46.0997 59.4797 47.1112 51.5949C48.4041 41.516 49.7957 30.6685 58.2269 22.5514C63.2185 17.746 68.6677 15.8321 78.1906 12.4874Z" fill="#2F2E41"/>
</g>
<defs>
<clipPath id="clip0_1801_3377">
<rect width="206" height="311" fill="white"/>
</clipPath>
</defs>
</svg>
