<svg width="172" height="393" viewBox="0 0 172 393" fill="none" xmlns="http://www.w3.org/2000/svg">
<path d="M112.762 197.318H89.8594V217.722H112.762V197.318Z" fill="#E6E6E6"/>
<path d="M112.762 197.318H89.8594V217.722H112.762V197.318Z" fill="#E6E6E6"/>
<path d="M160.18 380.839L153.918 381.494C148.973 384.151 143.168 385.151 136.739 384.947C135.841 384.923 134.966 384.691 134.201 384.273C133.435 383.855 132.806 383.266 132.374 382.565C132 381.949 131.79 381.265 131.761 380.566C131.732 379.866 131.885 379.17 132.207 378.532C132.53 377.893 133.013 377.33 133.62 376.885C134.226 376.44 134.94 376.126 135.705 375.968L140.463 374.98L151.943 364.977L158.869 353.811L168.929 354.838L171.023 369.022C171.289 371.86 170.306 374.679 168.283 376.884C166.26 379.089 163.354 380.507 160.18 380.839Z" fill="#FFB8B8"/>
<path d="M62.6663 373.664L56.5295 374.95C51.9557 378.091 46.3166 379.674 39.9033 380.125C39.0087 380.192 38.1098 380.05 37.2958 379.712C36.4819 379.375 35.781 378.854 35.2628 378.2C34.8122 377.627 34.5163 376.969 34.398 376.277C34.2798 375.585 34.3423 374.878 34.5809 374.211C34.8195 373.544 35.2277 372.935 35.7736 372.432C36.3195 371.928 36.9884 371.544 37.7283 371.308L42.3287 369.845L52.4548 358.741L57.9073 346.944H68.0334L71.9281 360.823C72.555 363.616 71.9394 366.516 70.2113 368.912C68.4833 371.308 65.7779 373.012 62.6663 373.664Z" fill="#FFB8B8"/>
<path d="M57.6328 347.729L69.0839 349.298L87.1415 268.076L118.412 220.599L156.289 358.715L170.382 361.069C168.802 283.291 176.516 185.371 158.931 173.514L82.2968 181.361L48.8242 261.406L57.6328 347.729Z" fill="#2F2E41"/>
<path d="M113.125 52.6613C127.719 52.6613 139.551 42.121 139.551 29.1187C139.551 16.1165 127.719 5.57617 113.125 5.57617C98.5304 5.57617 86.6992 16.1165 86.6992 29.1187C86.6992 42.121 98.5304 52.6613 113.125 52.6613Z" fill="#FFB8B8"/>
<path d="M150.127 65.2185L118.416 69.9271L110.488 44.8147L133.39 38.5371L150.127 65.2185Z" fill="#FFB8B8"/>
<path d="M163.336 176.653L78.7734 183.716C85.5527 162.715 91.7639 141.787 86.7011 120.936C80.272 102.32 86.4774 91.2499 103.437 82.4828L114.889 59.7249L145.719 56.5859C153.883 68.2806 157.223 82.1427 155.164 95.7922C150.771 125.474 151.958 153.017 163.336 176.653Z" fill="#0393E3"/>
<path d="M112.533 1.31471C103.714 3.10979 93.6756 5.65324 93.1127 8.0173C84.0405 10.054 77.1929 14.9325 75.7947 22.3699C75.6779 23.0127 75.7207 23.6705 75.9202 24.297C76.1196 24.9235 76.4708 25.5034 76.949 25.9959C77.4272 26.4884 78.0208 26.8815 78.688 27.1475C79.3552 27.4134 80.0797 27.5459 80.8106 27.5354C85.7443 27.4788 93.1508 27.0578 98.0415 25.2379C112.249 33.3934 114.634 54.6051 108.429 69.0435L118.193 68.2462L128.294 41.9029L130.874 67.2106L153.154 64.5862L150.284 32.3142C149.402 24.708 146.496 17.3988 141.808 10.9935C141.322 10.3502 140.789 9.73542 140.214 9.15287C136.824 5.74136 132.461 3.21127 127.587 1.83122C122.714 0.451167 117.511 0.272684 112.533 1.31471Z" fill="#2F2E41"/>
<path d="M56.5737 388.933C56.5258 389.317 56.5688 389.706 56.6999 390.075C56.8311 390.443 57.0475 390.783 57.3351 391.072C57.6227 391.361 57.9752 391.594 58.3699 391.754C58.7645 391.914 59.1926 391.999 59.6263 392.003L69.5356 392.094C70.0693 392.061 70.569 391.849 70.9339 391.5C71.2988 391.152 71.5017 390.693 71.5017 390.216C71.5017 389.84 71.3752 389.472 71.1384 389.161C70.9017 388.849 70.5655 388.608 70.1734 388.468L67.2498 387.426L62.9978 382.123H59.5963C57.926 384.107 56.883 386.454 56.5756 388.918L56.5737 388.933Z" fill="#FFB8B8"/>
<path d="M32.8577 388.933C32.9056 389.317 32.8626 389.706 32.7314 390.075C32.6003 390.443 32.3839 390.783 32.0963 391.072C31.8087 391.361 31.4561 391.594 31.0615 391.754C30.6668 391.914 30.2388 391.999 29.8051 392.003L19.8958 392.094C19.3621 392.061 18.8624 391.849 18.4975 391.5C18.1326 391.152 17.9297 390.693 17.9297 390.216C17.9297 389.84 18.0562 389.472 18.293 389.161C18.5298 388.849 18.8659 388.608 19.2581 388.468L22.1816 387.426L26.4336 382.123H29.8351C31.5053 384.107 32.5484 386.454 32.8558 388.918L32.8577 388.933Z" fill="#FFB8B8"/>
<path d="M25.5781 382.124H30.6804L48.5386 313.182L57.8928 382.882H63.8456L71.9242 293.105L30.6804 292.727L25.5781 382.124Z" fill="#3F3D56"/>
<path d="M2.62109 255.602H9.42419V241.207L10.9718 238.45C11.2824 237.897 11.4418 237.286 11.4371 236.667C11.4323 236.048 11.2636 235.439 10.9447 234.89C10.6257 234.34 10.1654 233.866 9.60149 233.505C9.03754 233.144 8.38582 232.906 7.69944 232.812C7.07128 232.726 6.42961 232.762 5.81851 232.918C5.2074 233.073 4.6413 233.345 4.15894 233.713C3.67659 234.082 3.28941 234.539 3.02397 235.054C2.75853 235.568 2.62109 236.128 2.62109 236.694V255.602Z" fill="#FFB8B8"/>
<path d="M43.0134 219.996C51.702 219.996 58.7456 213.721 58.7456 205.981C58.7456 198.24 51.702 191.965 43.0134 191.965C34.3248 191.965 27.2812 198.24 27.2812 205.981C27.2812 213.721 34.3248 219.996 43.0134 219.996Z" fill="#FFB8B8"/>
<path d="M36.6395 229.844H52.7969V213.176H36.6395V229.844Z" fill="#FFB8B8"/>
<path d="M28.9863 294.998C43.2878 302.861 58.4082 302.092 74.0568 295.756L70.6553 225.299L52.7972 224.541L34.0886 226.814L24.7344 233.632L28.9863 294.998Z" fill="#0393E3"/>
<path d="M11.9757 269.998L30.6843 257.119L24.7315 233.633L13.6765 251.815L10.275 248.785L0.0703125 255.603L11.9757 269.998Z" fill="#0393E3"/>
<path d="M95.0247 226.509L89.0744 229.447L81.2419 216.857L78.3879 215.113C77.8151 214.763 77.3433 214.298 77.0108 213.755C76.6782 213.212 76.4945 212.606 76.4745 211.988C76.4545 211.369 76.5987 210.755 76.8955 210.196C77.1923 209.637 77.6333 209.148 78.1824 208.769C78.685 208.422 79.2657 208.177 79.8849 208.049C80.504 207.921 81.1468 207.914 81.7693 208.028C82.3918 208.142 82.9792 208.375 83.4913 208.71C84.0034 209.045 84.4281 209.475 84.7362 209.971L87.1923 213.919L95.0247 226.509Z" fill="#FFB8B8"/>
<path d="M61.7227 247.649L84.3013 236.971L96.1633 231.361L97.8641 222.27L90.2106 215.451L80.8564 220.754L81.7068 226.815L70.6517 225.3L61.7227 247.649Z" fill="#0393E3"/>
<path d="M46.4195 217.344C56.7519 217.344 65.128 209.882 65.128 200.677C65.128 191.472 56.7519 184.01 46.4195 184.01C36.087 184.01 27.7109 191.472 27.7109 200.677C27.7109 209.882 36.087 217.344 46.4195 217.344Z" fill="#2F2E41"/>
<path d="M56.6132 189.312C61.3098 189.312 65.1171 185.92 65.1171 181.736C65.1171 177.552 61.3098 174.16 56.6132 174.16C51.9167 174.16 48.1094 177.552 48.1094 181.736C48.1094 185.92 51.9167 189.312 56.6132 189.312Z" fill="#2F2E41"/>
<path d="M56.2102 188.072C57.896 188.856 59.8283 189.113 61.698 188.804C63.5677 188.494 65.2669 187.635 66.5239 186.364C67.781 185.092 68.5233 183.482 68.6322 181.791C68.741 180.099 68.2101 178.424 67.1244 177.033C68.1077 177.692 68.9185 178.534 69.5011 179.499C70.0836 180.465 70.4239 181.531 70.4983 182.626C70.5728 183.72 70.3798 184.815 69.9324 185.836C69.4851 186.858 68.7943 187.78 67.9076 188.54C67.0209 189.3 65.9596 189.88 64.797 190.238C63.6343 190.597 62.3981 190.727 61.1737 190.618C59.9493 190.51 58.7659 190.166 57.7054 189.61C56.6449 189.054 55.7325 188.3 55.0312 187.399C55.4028 187.652 55.7972 187.877 56.2102 188.072Z" fill="#2F2E41"/>
<path d="M108.727 200.196L109.311 218.414C109.392 220.926 108.401 223.371 106.539 225.258C104.677 227.144 102.081 228.332 99.2752 228.582C97.4779 228.743 95.6639 228.511 93.9891 227.909C92.3144 227.306 90.8291 226.35 89.6611 225.122C88.493 223.895 87.6771 222.433 87.2835 220.862C86.89 219.292 86.9305 217.66 87.4018 216.106L91.9906 200.98L105.203 136.631L104.323 98.9625L132.51 98.1777L127.225 140.554L108.727 200.196Z" fill="#FFB8B8"/>
<path d="M134.273 102.1C124.061 98.635 112.775 98.635 102.562 102.1L104.324 70.7103C104.324 67.3803 105.809 64.1866 108.452 61.8319C111.095 59.4772 114.68 58.1543 118.418 58.1543C122.156 58.1543 125.741 59.4772 128.384 61.8319C131.027 64.1866 132.512 67.3803 132.512 70.7103L134.273 102.1Z" fill="#0393E3"/>
</svg>
